<svg xmlns="http://www.w3.org/2000/svg" xmlns:xlink="http://www.w3.org/1999/xlink" width="591" height="536" viewBox="0 0 591 536">
    <defs>
        <path id="lkm6ijmzma" d="M32.063.016c1.647 2.925 3.512 8.928 4.344 12.753.257 1.152.417 2.099.448 2.718.043.888-11.983 11.014-14.89 11.014H.157c-.063-.795.016-1.609.225-2.41 1.027-4.174 5.146-8.145 7.968-8.145 2.283-2.892 6.043-13.14 6.082-13.25 1.935.859 4.625 1.503 7.436 1.503 2.445 0 4.983-.486 7.204-1.742 1.089-.617 2.102-1.42 2.99-2.44h.001z"/>
        <path id="sltio1nfjc" d="M23.751.03c1.676 1.181 5.18 3.161 9.833 3.161.7 0 1.424-.043 2.173-.142 1.571-.207 3.253-.653 5.017-1.427.066 2.106-1.163 10.42-2.025 15.068-.265 1.45-.495 2.547-.645 2.98-2.446.765-35.694 1.071-37.989 1.071 0-1.063-.036-2.012.074-2.905.214-1.677.949-3.146 3.445-4.743C7.46 10.645 22.654 3.05 22.654 3.05L23.752.031z"/>
        <path id="5m1udswmpe" d="M8.285.122c1.669 3.489 4.4 7.911 11.774 8.851 1.379.21 2.452.275 3.251.275.99 0 1.56-.099 1.778-.147.602 6.5 6.768 17.807 7.8 20.541 1.208 3.203 1.422 4.49-3.463 4.49-8.144 0-14-6.322-16.269-8.468-2.307-2.181-2.793-7.46-2.793-7.46l-2.146 3.119-8.053-5.537C.11 11.56 4.934 3.791 8.285.122z"/>
        <path id="63c8pwb6ch" d="M4.041.09C2.7 2.174 1.402 4.054.169 5.657 1.415 3.974 2.711 2.106 4.041.09z"/>
        <path id="flaf8k74lj" d="M.08.153c.923.119 1.918.182 2.994.182.648 0 1.325-.024 2.033-.07l.001.016C4.891.329 4.32.428 3.33.428 2.53.428 1.458.364.08.153z"/>
        <path id="004yrh99dm" d="M18.14.099c2.789 5.495 22.761 14.82 25.461 16.697 2.81 1.953 3.053 4.764 1.588 4.764h-23.45c-3.177 0-9.407-3.787-9.407-3.787v3.787h-9.77c-.326-.462-.618-1.026-.874-1.666-.2-.499-.38-1.046-.538-1.628-.41-1.495-.693-3.23-.862-5.013C-.077 9.428.07 5.38.558 2.973c1.29.706 3.71 1.424 6.579 1.424h.038c3.409-.01 7.441-1.04 10.965-4.298z"/>
        <linearGradient id="eoc6lmm01f" x1="41.217%" x2="35.822%" y1="73.948%" y2="70.284%">
            <stop offset="0%" stop-color="#363E7C"/>
            <stop offset="100%" stop-color="#21304F"/>
        </linearGradient>
        <linearGradient id="0p2o7ckylk" x1="41.217%" x2="35.822%" y1="73.948%" y2="70.284%">
            <stop offset="0%" stop-color="#2B3264"/>
            <stop offset="100%" stop-color="#1B273F"/>
        </linearGradient>
        <linearGradient id="b0wz34fxwn" x1="48.3%" x2="41.752%" y1="72.625%" y2="71.848%">
            <stop offset="0%" stop-color="#363E7C"/>
            <stop offset="100%" stop-color="#21304F"/>
        </linearGradient>
    </defs>
    <g fill="none" fill-rule="evenodd">
        <g>
            <g>
                <g>
                    <g>
                        <path fill="#FF6E54" d="M500.897.028h50.234c5.044 0 9.135 4.089 9.135 9.132v50.234c0 5.046-4.091 9.135-9.135 9.135h-50.234c-5.044 0-9.133-4.089-9.133-9.135V9.16c0-5.043 4.09-9.132 9.133-9.132" transform="translate(-280 -3781) translate(120 3443) translate(160 338) translate(12.6 84)"/>
                        <path fill="#FFF" d="M527.603 49.882c-1.45 0-2.626-1.176-2.626-2.626v-4.394c0-4.12 2.702-6.997 5.314-9.78 2.444-2.602 4.752-5.06 4.752-8.362 0-4.1-3.337-7.436-7.44-7.436-4.104 0-7.44 3.336-7.44 7.436 0 1.451-1.176 2.626-2.627 2.626-1.449 0-2.624-1.175-2.624-2.626 0-6.996 5.691-12.688 12.691-12.688 6.999 0 12.69 5.692 12.69 12.688 0 5.381-3.423 9.028-6.174 11.958-2.086 2.223-3.89 4.143-3.89 6.184v4.394c0 1.45-1.177 2.626-2.626 2.626zm.017 10.065c-1.45 0-2.636-1.175-2.636-2.625s1.169-2.626 2.62-2.626h.016c1.452 0 2.626 1.175 2.626 2.626 0 1.45-1.174 2.625-2.626 2.625z" transform="translate(-280 -3781) translate(120 3443) translate(160 338) translate(12.6 84)"/>
                        <path fill="#FFE75B" d="M9.144 293.704H58.73c4.978 0 9.014 4.038 9.014 9.015v49.584c0 4.98-4.036 9.015-9.014 9.015H9.144c-4.98 0-9.017-4.034-9.017-9.015V302.72c0-4.977 4.037-9.015 9.017-9.015" transform="translate(-280 -3781) translate(120 3443) translate(160 338) translate(12.6 84)"/>
                        <path fill="#2D3A69" d="M30.223 310.721c-6.897 0-12.508 5.611-12.508 12.507 0 6.9 5.61 12.512 12.508 12.512 6.898 0 12.51-5.613 12.51-12.512 0-6.896-5.612-12.507-12.51-12.507zm0 30.203c-9.755 0-17.692-7.938-17.692-17.696 0-9.754 7.937-17.69 17.692-17.69 9.756 0 17.693 7.936 17.693 17.69 0 9.758-7.937 17.696-17.693 17.696z" transform="translate(-280 -3781) translate(120 3443) translate(160 338) translate(12.6 84)"/>
                        <path fill="#2D3A69" d="M51.183 348.098c-.663 0-1.326-.253-1.832-.76l-10.818-10.815c-1.013-1.014-1.013-2.654 0-3.667 1.01-1.012 2.652-1.012 3.665 0l10.818 10.818c1.012 1.013 1.012 2.653 0 3.665-.506.506-1.17.76-1.833.76" transform="translate(-280 -3781) translate(120 3443) translate(160 338) translate(12.6 84)"/>
                        <path fill="#D0DAF5" d="M576.004 312.147c-2.53-1.375-4.536-3.539-4.457-4.819l-.03-1.179-.031-1.188c-.148-1.265 1.744-3.544 4.199-5.04 2.466-1.506 2.993-5.167 1.166-8.145l-6.43-10.495c-1.824-2.969-5.311-4.158-7.78-2.659-2.461 1.505-5.352 2.19-6.446 1.51-1.097-.666-4.234-4.46-4.308-7.346-.075-2.887-2.984-5.167-6.467-5.076l-12.301.324c-3.482.09-6.266 2.519-6.19 5.406.073 2.885-.802 5.731-1.936 6.343-1.139.612-5.965 1.422-8.5.047-2.54-1.366-5.966.002-7.63 3.06l-5.871 10.82c-1.667 3.069-.954 6.697 1.593 8.06 2.529 1.377 4.534 3.557 4.457 4.826l.03 1.19.031 1.173c.146 1.278-1.744 3.544-4.198 5.051-2.471 1.508-2.991 5.168-1.17 8.138l6.43 10.494c1.823 2.966 5.314 4.165 7.783 2.658 2.459-1.495 5.35-2.18 6.444-1.513 1.095.682 4.232 4.476 4.306 7.36.077 2.887 2.986 5.166 6.467 5.074l12.303-.322c3.48-.09 6.266-2.518 6.19-5.404-.075-2.887.801-5.745 1.934-6.356 1.139-.615 5.967-1.413 8.501-.046 2.543 1.375 5.965-.006 7.63-3.062l5.875-10.818c1.665-3.058.949-6.687-1.594-8.066" transform="translate(-280 -3781) translate(120 3443) translate(160 338) translate(12.6 84)"/>
                        <path fill="#00D3AA" d="M540.725 323.419c-9.086.239-16.646-6.936-16.882-16.02-.24-9.09 6.936-16.649 16.022-16.884 9.085-.238 16.645 6.935 16.882 16.021.238 9.087-6.937 16.647-16.022 16.883" transform="translate(-280 -3781) translate(120 3443) translate(160 338) translate(12.6 84)"/>
                        <path fill="#FFF" d="M89.514 41.58c0-3.768 3.056-6.824 6.825-6.824h361.054c3.769 0 6.818 3.056 6.818 6.825v262.353c0 3.769-3.05 6.823-6.818 6.823H96.339c-3.769 0-6.825-3.054-6.825-6.823V41.58" transform="translate(-280 -3781) translate(120 3443) translate(160 338) translate(12.6 84)"/>
                        <path fill="#F2AD33" d="M96.339 36.106c-3.019 0-5.475 2.456-5.475 5.475v262.353c0 3.018 2.456 5.473 5.475 5.473h361.054c3.015 0 5.468-2.455 5.468-5.473V41.58c0-3.02-2.453-5.475-5.468-5.475H96.339m361.054 276.001H96.339c-4.508 0-8.175-3.666-8.175-8.173V41.58c0-4.508 3.667-8.175 8.175-8.175h361.054c4.503 0 8.168 3.667 8.168 8.175v262.353c0 4.507-3.665 8.173-8.168 8.173" transform="translate(-280 -3781) translate(120 3443) translate(160 338) translate(12.6 84)"/>
                        <path fill="#3E405C" d="M465.9 61.103H88V42.25c0-4.557 3.695-8.25 8.25-8.25h361.396c4.556 0 8.253 3.693 8.253 8.25v18.853" transform="translate(-280 -3781) translate(120 3443) translate(160 338) translate(12.6 84)"/>
                        <path fill="#D0DAF5" d="M100.258 46.943c0-1.708 1.386-3.094 3.094-3.094H310.43c1.708 0 3.092 1.386 3.092 3.094 0 1.709-1.384 3.094-3.092 3.094H103.352c-1.708 0-3.094-1.385-3.094-3.094M429.642 46.943c0 3.19 2.59 5.775 5.778 5.775 3.188 0 5.77-2.586 5.77-5.775 0-3.19-2.582-5.775-5.77-5.775-3.188 0-5.778 2.585-5.778 5.775M416.44 52.718c-3.187 0-5.77-2.586-5.77-5.775 0-3.19 2.583-5.775 5.77-5.775 3.194 0 5.777 2.585 5.777 5.775 0 3.19-2.583 5.775-5.776 5.775zm0-1.237c-2.503 0-4.533-2.031-4.533-4.538 0-2.506 2.03-4.538 4.534-4.538 2.509 0 4.54 2.032 4.54 4.538 0 2.507-2.031 4.538-4.54 4.538zM397.467 52.718c-3.19 0-5.774-2.586-5.774-5.775 0-3.19 2.584-5.775 5.774-5.775 3.188 0 5.776 2.585 5.776 5.775 0 3.19-2.588 5.775-5.776 5.775zm0-1.237c-2.504 0-4.536-2.031-4.536-4.538 0-2.506 2.032-4.538 4.536-4.538 2.511 0 4.54 2.032 4.54 4.538 0 2.507-2.029 4.538-4.54 4.538z" transform="translate(-280 -3781) translate(120 3443) translate(160 338) translate(12.6 84)"/>
                        <path fill="#E4EAEB" d="M89.514 94.753L464.062 94.753 464.062 58.668 89.514 58.668zM219.487 169.95c0 4.95-4.05 9-9 9h-73.548c-4.95 0-9-4.05-9-9v-51.496c0-4.95 4.05-9 9-9h73.548c4.95 0 9 4.05 9 9v51.497M219.487 211.077c0 2.912-2.384 5.294-5.296 5.294h-80.957c-2.912 0-5.295-2.382-5.295-5.294v-13.468c0-2.912 2.383-5.293 5.295-5.293h80.957c2.912 0 5.296 2.381 5.296 5.293v13.468M235.525 310.757v-191.28c0-5.512 4.51-10.023 10.024-10.023h151.69c5.513 0 10.024 4.51 10.024 10.023v191.28H235.525" transform="translate(-280 -3781) translate(120 3443) translate(160 338) translate(12.6 84)"/>
                        <path fill="#3E405C" d="M96.339 36.106c-3.019 0-5.475 2.456-5.475 5.475v262.353c0 3.018 2.456 5.473 5.475 5.473h361.054c3.015 0 5.468-2.455 5.468-5.473V41.58c0-3.02-2.453-5.475-5.468-5.475H96.339m361.054 276.001H96.339c-4.508 0-8.175-3.666-8.175-8.173V41.58c0-4.508 3.667-8.175 8.175-8.175h361.054c4.503 0 8.168 3.667 8.168 8.175v262.353c0 4.507-3.665 8.173-8.168 8.173" transform="translate(-280 -3781) translate(120 3443) translate(160 338) translate(12.6 84)"/>
                        <path fill="#A5B7E8" d="M340.517 411.188l11.889-69.161c.408-2.365 2.779-4.365 5.18-4.365h48.829c2.4 0 4.772 2 5.178 4.365l11.891 69.161h-82.967m93.512 35.387l-18.101-105.293c-.774-4.495-4.952-8.016-9.513-8.016h-48.829c-4.561 0-8.74 3.521-9.513 8.016l-18.1 105.293c-.208 1.197.597 2.334 1.792 2.54.128.021.252.032.376.032 1.05 0 1.98-.756 2.164-1.827l5.476-31.848h84.438l5.477 31.848c.203 1.197 1.337 2.003 2.538 1.794 1.197-.205 2-1.342 1.795-2.54" transform="translate(-280 -3781) translate(120 3443) translate(160 338) translate(12.6 84)"/>
                        <path fill="#CCC" d="M412.432 346.903l-.824-4.799.824 4.8m3.904-3.24l-.408-2.382c-.085-.49-.21-.969-.371-1.433h.07c.1.367.182.745.249 1.13l.46 2.684" transform="translate(-280 -3781) translate(120 3443) translate(160 338) translate(12.6 84)"/>
                        <path fill="#8492BA" d="M412.432 346.903l-.824-4.799-.065-.38c-.124-.716-.416-1.342-.787-1.875h4.801c.16.464.286.943.37 1.433l.96 5.585-4.455.036" transform="translate(-280 -3781) translate(120 3443) translate(160 338) translate(12.6 84)"/>
                        <path fill="#A5B7E8" d="M335.356 333.677v6.172h93.289v-6.174c0-3.388-2.873-6.163-6.385-6.163h-80.52c-3.511 0-6.384 2.775-6.384 6.165M135.824 411.188l11.89-69.161c.406-2.365 2.779-4.365 5.178-4.365h48.83c2.4 0 4.772 2 5.179 4.365l11.889 69.161h-82.966m93.51 35.387l-18.1-105.293c-.773-4.495-4.95-8.016-9.512-8.016h-48.83c-4.56 0-8.739 3.521-9.511 8.016l-18.103 105.293c-.205 1.197.598 2.334 1.795 2.54.126.021.252.032.374.032 1.051 0 1.982-.756 2.166-1.827l5.475-31.848h84.438l5.476 31.848c.205 1.197 1.337 2.003 2.54 1.794 1.195-.205 2-1.342 1.792-2.54" transform="translate(-280 -3781) translate(120 3443) translate(160 338) translate(12.6 84)"/>
                        <path fill="#CCC" d="M146.896 346.903h-.02l.837-4.876c.026-.139.056-.277.092-.414l-.02.112-.889 5.178m-3.384-6.251c.056-.272.117-.54.19-.803h.05c-.092.263-.171.531-.24.803" transform="translate(-280 -3781) translate(120 3443) translate(160 338) translate(12.6 84)"/>
                        <path fill="#8492BA" d="M146.876 346.903l-4.435-.036 1.012-5.888c.018-.11.038-.22.06-.327.068-.272.147-.54.239-.803h4.82c-.353.506-.634 1.094-.767 1.764-.036.137-.066.275-.092.414l-.837 4.876" transform="translate(-280 -3781) translate(120 3443) translate(160 338) translate(12.6 84)"/>
                        <path fill="#A5B7E8" d="M130.664 333.677v6.172h93.287v-6.174c0-3.388-2.873-6.163-6.385-6.163h-80.52c-3.51 0-6.382 2.775-6.382 6.165" transform="translate(-280 -3781) translate(120 3443) translate(160 338) translate(12.6 84)"/>
                    </g>
                    <g transform="translate(-280 -3781) translate(120 3443) translate(160 338) translate(367.02 506.64)">
                        <mask id="8asylqkuqb" fill="#fff">
                            <use xlink:href="#lkm6ijmzma"/>
                        </mask>
                        <path d="M-431.449 73.429L288.544 73.429 288.544 -466.571 -431.449 -466.571z" mask="url(#8asylqkuqb)"/>
                    </g>
                    <g>
                        <path fill="#2C3D4F" d="M.157 20.381h21.808c2.907 0 14.933-10.126 14.89-11.014-.03-.619-.19-.956-.448-2.104-4.086 3.359-13.37 10.316-14.442 10.67-1.132.38-16.252.135-21.583.038-.21.801-.288 1.615-.225 2.41" transform="translate(-280 -3781) translate(120 3443) translate(160 338) translate(367.02 512.76)"/>
                        <path fill="#5587ED" d="M8.35 9.826c2.448-.153 5.506.457 7.038 1.681l9.025-9.025s-5.6-3.868-11.52-1.935L8.35 9.827" transform="translate(-280 -3781) translate(120 3443) translate(160 338) translate(367.02 512.76)"/>
                    </g>
                    <g transform="translate(-280 -3781) translate(120 3443) translate(160 338) translate(300.24 512.4)">
                        <mask id="vco31wlshd" fill="#fff">
                            <use xlink:href="#sltio1nfjc"/>
                        </mask>
                        <path d="M-364.669 67.669L355.324 67.669 355.324 -472.331 -364.669 -472.331z" mask="url(#vco31wlshd)"/>
                    </g>
                    <g>
                        <path fill="#5587ED" d="M5.546 303.14s7.263-.357 10.52 1.143c2.34-.95 10.515-5.766 10.515-5.766s.356-3.713-3.926-4.228l-17.11 8.85" transform="translate(-280 -3781) translate(120 3443) translate(160 338) translate(300.24 221.16)"/>
                        <path fill="#2D3A69" d="M22.655 290.408s5.25 4.916 13.102 3.881c2.178-.286 4.565-1.033 7.092-2.471 2.754-7.222 17.141-54.209 20.041-61.38 2.902-7.171.949-9.486 7.436-16.218 5.605-5.82 32.434-33.721 39.796-46.516 1.163-2.009 1.836-3.697 1.878-4.94.306-9.177 0-15.904 0-15.904s-31.517 1.01-33.353 1.572c-1.836.563-5.506 4.847-5.506 4.847-1.836 7.65-22.482 25.483-30.296 39.557-4.217 7.596-5.198 17.712-7.034 26.28-1.836 8.568-13.156 71.292-13.156 71.292" transform="translate(-280 -3781) translate(120 3443) translate(160 338) translate(300.24 221.16)"/>
                        <path fill="#CCC" d="M40.774 292.862c.68-.299 1.371-.645 2.075-1.044.853-2.24 2.824-8.3 5.227-15.813l-.174 1.015c-2.322 6.986-4.22 12.613-5.053 14.798-.704.4-1.395.745-2.075 1.044m16.394-43.792l.59-3.442c2.335-7.232 4.257-13.025 5.132-15.19 1.65-4.083 1.73-6.59 2.688-9.236l.06.646c-1.014 3.314-1.061 6.563-2.748 10.73-.948 2.347-3.125 8.721-5.722 16.492" transform="translate(-280 -3781) translate(120 3443) translate(160 338) translate(300.24 221.16)"/>
                        <path fill="#8492BA" d="M47.902 277.02l.174-1.015c3.004-9.402 6.684-21.08 9.682-30.377l-.59 3.442c-2.943 8.802-6.422 19.395-9.266 27.95" transform="translate(-280 -3781) translate(120 3443) translate(160 338) translate(300.24 221.16)"/>
                        <path fill="#242E54" d="M35.757 294.29c4.626-14.565 22.53-70.395 25.346-79.764 3.225-10.74 7.142-21.926 13.872-26.822 6.734-4.896 24.896-20.099 24.896-20.099l.33.007c-3.753 3.788-12.714 12.72-19.05 18.153-8.2 7.037-13.824 14.38-15.66 27.539-.266 1.904-.21 4.62.087 7.898-.958 2.646-1.037 5.153-2.688 9.236-.875 2.165-2.797 7.958-5.132 15.19-2.998 9.297-6.678 20.975-9.682 30.377-2.403 7.513-4.374 13.574-5.227 15.813-.704.4-1.395.745-2.075 1.044-1.764.774-3.446 1.22-5.017 1.427" transform="translate(-280 -3781) translate(120 3443) translate(160 338) translate(300.24 221.16)"/>
                        <path fill="#2D3A69" d="M80.18 287.656c3.34 1.91 10.401 3.262 15.672.281 1.487-.842 2.831-2.032 3.91-3.647 0-6.426-7.039-63.642-9.487-68.846 0 0 27.845-15.349 39.075-24.223 11.23-8.874 10.19-29.068 7.436-39.368 0 0-4.266-.71-8.397-1.706-2.13-.517-4.223-1.109-5.68-1.715-4.283-1.786-14.563 3.421-14.563 3.421l-6.181 13.972s-12.608 12.902-20.814 19.94c-8.2 7.037-13.824 14.38-15.66 27.539-1.836 13.156 11.626 64.868 14.688 74.352" transform="translate(-280 -3781) translate(120 3443) translate(160 338) translate(300.24 221.16)"/>
                        <path fill="#242E54" d="M95.852 287.937c-1.915-16.927-11.286-74.94-11.286-74.94s23.047-17.083 35.084-24.836c10.155-6.543 10-19.472 9.025-29.072h9.477c.284 2.322.452 4.814.452 7.364 0 1.914-.098 3.861-.312 5.794-.1.906-.227 1.808-.381 2.7-1.03 5.942-3.31 11.542-7.537 15.405-.33.3-.671.59-1.024.87-4.178 3.3-10.654 7.498-17.142 11.467-10.95 6.701-21.933 12.755-21.933 12.755 2.448 5.204 9.486 62.42 9.486 68.846-1.078 1.615-2.422 2.805-3.91 3.647m32.293-134.887c.036-.709.106-1.717.245-2.903 4.13.995 8.397 1.706 8.397 1.706.102.386.203.785.3 1.197h-8.942" transform="translate(-280 -3781) translate(120 3443) translate(160 338) translate(300.24 221.16)"/>
                        <path fill="#FF9D87" d="M54.558 123.29c.178.084 0 6.863 0 6.863s-12.168 9.662-13.239 12.724c-1.071 3.058 0 6.424 0 6.424s16.092-.5 21.571-1.377c5.48-.875 11.781-10.102 11.932-13.235.153-3.134.153-11.396.153-11.396s-8.566-11.78-11.932-7.954c-3.366 3.825-8.485 7.95-8.485 7.95" transform="translate(-280 -3781) translate(120 3443) translate(160 338) translate(300.24 221.16)"/>
                        <path fill="#FF7D71" d="M54.635 124.515c3.665 2.91 16.53 6.732 18.427 4.898.193-1.993-.047-8.584-.047-8.584s-5.378-2.432-9.128-1.053c-3.75 1.375-9.252 3.452-9.252 3.452v1.287" transform="translate(-280 -3781) translate(120 3443) translate(160 338) translate(300.24 221.16)"/>
                        <path fill="#2E5998" d="M72.938 63.932s-8.161 5.098-9.18 7.751c-1.02 2.653-9.384 10.608-10.608 50.794 6.73 4.488 18.562 2.652 21.825.816 3.878-12.24 7.141-42.633 5.917-47.122-1.224-4.488-7.954-12.239-7.954-12.239" transform="translate(-280 -3781) translate(120 3443) translate(160 338) translate(300.24 221.16)"/>
                        <path fill="#1E467F" d="M71.67 91.537l-2.85 33.3s2.85 0 5.1-.9c2.25-.9-2.25-32.4-2.25-32.4" transform="translate(-280 -3781) translate(120 3443) translate(160 338) translate(300.24 221.16)"/>
                        <path fill="#2E5998" d="M136.786 151.852c-.409-8.568 9.178-78.74 9.178-78.74-4.488-9.588-26.723-16.93-33.045-18.766 0 0-9.453-.461-14.28 0-4.825.459-21.214 7.138-25.701 9.586-5.101 9.79-1.226 22.643-.817 35.291.408 12.647 2.244 43.449 1.02 54.056 14.686 4.651 42.838 4.491 63.645-1.427" transform="translate(-280 -3781) translate(120 3443) translate(160 338) translate(300.24 221.16)"/>
                        <path fill="#1E467F" d="M129.357 95.195c-.527 6.372 1.294 23.565 0 26.368-1.292 2.8-24.678 11.216-27.891 13.205-3.211 1.987-10.217-3.06-15.78-1.224l-12.143 11.318s-.249 6.122-.402 8.417c5.66 2.907 42.225 5.965 63.645-1.427.2-4.853.793-11.438.793-11.438s1.043-33.186-1.405-36.244c-2.448-3.062-6.817-8.975-6.817-8.975" transform="translate(-280 -3781) translate(120 3443) translate(160 338) translate(300.24 221.16)"/>
                        <path fill="#FFAD98" d="M118.834 45.778c-2.041 3.672-3.114 8.362-2.093 13.667-7.346 8.568-20.808 5.1-23.663 1.427 0-5.302 2.705-13.667 2.705-13.667s6.729-14.094 12.035-14.074c5.307.018 13.185 1.222 13.185 1.222l-2.169 11.425" transform="translate(-280 -3781) translate(120 3443) translate(160 338) translate(300.24 221.16)"/>
                        <path fill="#FF7D71" d="M94.203 53.006c2.704.931 9.943.114 14.227-4.78 0 0-1.63-5.51-6.22-3.264-4.59 2.243-7.483 5.926-7.483 5.926l-.524 2.118" transform="translate(-280 -3781) translate(120 3443) translate(160 338) translate(300.24 221.16)"/>
                        <path fill="#FFAD98" d="M88.44 15.791c-3.673 20.398-4.283 43.857 19.99 32.435 9.384-7.344 14.892-14.076 11.628-22.236-3.265-8.16-10.812-15.912-17.543-14.076-6.732 1.836-14.076 3.877-14.076 3.877" transform="translate(-280 -3781) translate(120 3443) translate(160 338) translate(300.24 221.16)"/>
                        <path fill="#FF7D71" d="M88.09 17.806s4.227-1.608 15.687-2.73c11.459-1.12 11.283 8.16 10.39 13.702-4.921-10.54-17.466-3.502-26.592-7.691l.515-3.281" transform="translate(-280 -3781) translate(120 3443) translate(160 338) translate(300.24 221.16)"/>
                        <path fill="#2C3D4F" d="M118.834 45.778c-6.935-7.141-2.244-19.788-7.344-23.868-5.1-4.08-22.03 2.856-26.723-4.691-4.69-7.548 0-16.116 0-16.116s9.135 4.08 15.992.816c6.856-3.264 19.355-3.06 20.244 7.956 14.965 4.692-2.169 35.903-2.169 35.903" transform="translate(-280 -3781) translate(120 3443) translate(160 338) translate(300.24 221.16)"/>
                        <path fill="#FFAD98" d="M112.92 29.662s4.445-3.672 6.316-1.429c1.872 2.245-.702 12.443-5.148 10.2-1.169-4.08-1.169-8.77-1.169-8.77" transform="translate(-280 -3781) translate(120 3443) translate(160 338) translate(300.24 221.16)"/>
                        <path fill="#FF9D87" d="M153.716 120.38c.816 5.514 1.58 16.069-1.632 19.435-3.213 3.368-12.575 4.896-22.734 5.661-10.16.767-30.813 2.448-33.873 2.907-3.06.459-6.885-2.448-9.792-2.448s-10.116 1.705-12.171.776c-2.056-.929 3.076-12.676 12.171-13.167 2.898-.157 10.863 3.517 12.24 3.978 1.377.459 34.73-11.803 37.33-12.253.766-2.127-.766-8.708-.766-8.708s10.098-5.967 12.699-4.435c2.6 1.528 6.528 8.254 6.528 8.254" transform="translate(-280 -3781) translate(120 3443) translate(160 338) translate(300.24 221.16)"/>
                        <path fill="#FF7D71" d="M135.41 122.236c5.1 4.16 15.137 2.263 16.52 7.917.593 2.417 1.378 6.908.154 9.662 0 0 3.047-1.985 2.34-10.71l-.708-8.725s-3.774-3.666-7.752-3.513c-3.978.153-11.178 1.103-11.178 1.103l.624 4.266" transform="translate(-280 -3781) translate(120 3443) translate(160 338) translate(300.24 221.16)"/>
                        <path fill="#2E5998" d="M145.964 73.112c4.489 9.587 9.18 31.82 9.995 46.305-7.14 3.876-20.603 1.633-23.457 0-1.021-7.344-3.672-19.542-3.06-25.783 0 0 3.693-29.716 13.984-24.1 1.474 1.775 2.538 3.578 2.538 3.578" transform="translate(-280 -3781) translate(120 3443) translate(160 338) translate(300.24 221.16)"/>
                        <path fill="#FF7D71" d="M53.15 131.477s5.762-1.456 9.74 0c-2.142-1.452-6.107-1.807-8.332-1.324l-1.408 1.324M135.256 125.27s5.842 1.09 8.847 4.074c-1.338-2.214-4.792-4.195-7.015-4.687l-1.832.612" transform="translate(-280 -3781) translate(120 3443) translate(160 338) translate(300.24 221.16)"/>
                        <path fill="#2C3D4F" d="M.115 311.981c2.295 0 35.543-.306 37.991-1.07.148-.434.378-1.529.643-2.981l-38.56 1.146c-.11.893-.074 1.842-.074 2.905" transform="translate(-280 -3781) translate(120 3443) translate(160 338) translate(300.24 221.16)"/>
                    </g>
                    <g transform="translate(-280 -3781) translate(120 3443) translate(160 338) translate(186.48 501.06)">
                        <mask id="s3qqll6qhg" fill="#fff">
                            <use xlink:href="#5m1udswmpe"/>
                        </mask>
                        <path fill="url(#eoc6lmm01f)" d="M-250.909 79.009L469.084 79.009 469.084 -460.991 -250.909 -460.991z" mask="url(#s3qqll6qhg)"/>
                    </g>
                    <path fill="#49437B" d="M211.67 510.137c-12.054.85-15.31-5.472-17.265-9.727 9.447-15.037 21.498-58.602 22.03-65.03-5.605-5.82-32.434-33.721-39.794-46.516-1.164-2.009-1.836-3.697-1.879-4.94-.306-9.179 0-15.904 0-15.904s31.514 1.01 33.35 1.572c1.836.563 5.51 4.847 5.51 4.847 5.746 5.288 44.948 41.803 36.675 63.594-3.108 8.192-24.206 52.63-38.628 72.104" transform="translate(-280 -3781) translate(120 3443) translate(160 338)"/>
                    <g transform="translate(-280 -3781) translate(120 3443) translate(160 338) translate(211.5 504.48)">
                        <mask id="nskgbohyci" fill="#fff">
                            <use xlink:href="#63c8pwb6ch"/>
                        </mask>
                        <path fill="#CCC" d="M0.067 5.681L4.041 5.681 4.041 0.09 0.067 0.09z" mask="url(#nskgbohyci)"/>
                    </g>
                    <g transform="translate(-280 -3781) translate(120 3443) translate(160 338) translate(206.46 509.88)">
                        <mask id="senyzgfnwl" fill="#fff">
                            <use xlink:href="#flaf8k74lj"/>
                        </mask>
                        <path fill="url(#0p2o7ckylk)" d="M-270.889 70.189L449.104 70.189 449.104 -469.811 -270.889 -469.811z" mask="url(#senyzgfnwl)"/>
                    </g>
                    <g>
                        <path fill="#CCC" d="M17.437 72.823c-.254-.495-.519-.996-.792-1.5.338-.975.743-2.42 1.247-4.028.236.558.479 1.127.725 1.697-.381 1.262-.775 2.542-1.18 3.83" transform="translate(-280 -3781) translate(120 3443) translate(160 338) translate(191.34 391.8)"/>
                        <path fill="#3A3662" d="M18.194 118.415c-1.076 0-2.071-.063-2.995-.182l-.048-.007c5.787-8.604 14.131-22.38 2.286-45.403.405-1.29.799-2.569 1.18-3.83C22.58 78.16 27.805 88.9 32.542 98.403c-2.804 5.202-5.655 10.192-8.341 14.366-1.33 2.016-2.626 3.884-3.872 5.567-.034.002-.068.004-.102.008-.708.046-1.385.07-2.033.07m30.248-51.568C43.07 50.632 38.128 36.608 37.03 34.877 32.472 27.686 5.974 4.977.153.029c5.787 4.43 32.038 24.62 36.961 30.14 3.505 3.93 10.332 21.599 13.558 32.34-.502.889-1.264 2.385-2.23 4.338" transform="translate(-280 -3781) translate(120 3443) translate(160 338) translate(191.34 391.8)"/>
                    </g>
                    <g transform="translate(-280 -3781) translate(120 3443) translate(160 338) translate(236.34 512.4)">
                        <mask id="fgy9qk6dxo" fill="#fff">
                            <use xlink:href="#004yrh99dm"/>
                        </mask>
                        <path fill="url(#b0wz34fxwn)" d="M-300.769 67.669L419.224 67.669 419.224 -472.331 -300.769 -472.331z" mask="url(#fgy9qk6dxo)"/>
                    </g>
                    <g>
                        <path fill="#49437B" d="M44.914 192.303c11.228 8.874 46.19 29.423 46.19 29.423.732 12.737 30.076 66.738 32.381 72.855.553.826 3.631 2.145 7.53 2.136 3.742-.01 8.237-1.252 11.984-5.32-.678-8.6-24.546-80.725-27.13-84.8-5.126-8.09-38.006-35.806-38.006-35.806l-11.745-17.858s-10.28-5.209-14.564-3.42c-1.456.605-3.553 1.197-5.677 1.71-4.135 1.001-8.4 1.71-8.4 1.71-2.755 10.3-3.795 30.492 7.437 39.37" transform="translate(-280 -3781) translate(120 3443) translate(160 338) translate(112.5 220.08)"/>
                        <path fill="#3A3662" d="M130.977 296.717c-3.88 0-6.94-1.312-7.492-2.136-.918-2.436-6.123-12.463-12.103-24.457-4.737-9.504-9.963-20.243-13.925-29.412-3.59-8.316-6.145-15.341-6.354-18.986 0 0-34.961-20.549-46.19-29.423-7.03-5.557-9.253-15.548-9.255-24.772-.002-2.338.14-4.626.383-6.782.623-.362 1.318-.578 2.004-.578h7.542c-.978 9.601-1.132 22.527 9.025 29.068 12.038 7.753 30.863 19.167 41.166 27.391 5.575 7.898 25.216 63.295 35.237 80.087h-.038M37.165 154.174c.1-.429.205-.841.313-1.24 0 0 4.264-.71 8.399-1.71.136 1.19.207 2.199.24 2.908h-8.072c-.295 0-.589.015-.88.042" transform="translate(-280 -3781) translate(120 3443) translate(160 338) translate(112.5 220.08)"/>
                        <path fill="#FF9D87" d="M170.577 88.168c1.472-3.8 8.923-15.527 9.29-5.633-.123 1.098 9.16-10.26 11.603-6.962 2.442 3.298 4.397 12.458-.733 17.345-5.13 4.885-13.68 4.152-15.878 6.717-2.2 2.565-5.985-4.275-5.497-6.717.49-2.445 1.215-4.75 1.215-4.75" transform="translate(-280 -3781) translate(120 3443) translate(160 338) translate(112.5 220.08)"/>
                        <path fill="#FF7D71" d="M171.698 85.84c2.794 2.19 6.034 6.162 5.818 12.36-.331.107-1.469.57-1.469.57s-4.365-.845-4.853-3.044l-.617-7.558 1.121-2.328" transform="translate(-280 -3781) translate(120 3443) translate(160 338) translate(112.5 220.08)"/>
                        <path fill="#E3AF43" d="M130.316 106.393c-7.263-15.659-14.167-26.87-19.812-33.63-1.822-2.181-9.178-7.75-9.178-7.75s-6.732 7.75-7.956 12.238c-1.224 4.489 2.548 17.845 10.89 29.795 6.026 8.631 15.96 22.311 23.452 22.311 9.77 0 45.275-24.917 48.206-28.825.813-3.91-2.117-11.563-6.189-12.705-5.7 3.258-32.57 12.703-39.413 18.566" transform="translate(-280 -3781) translate(120 3443) translate(160 338) translate(112.5 220.08)"/>
                        <path fill="#E3AF43" d="M37.478 152.932c.407-8.568-9.18-78.74-9.18-78.74 4.487-9.588 26.723-16.93 33.046-18.766 0 0 9.454-.461 14.278 0 4.825.459 21.214 7.138 25.704 9.586 5.099 9.79 1.222 22.643.815 35.291-.409 12.647-2.245 43.449-1.019 54.056-14.688 4.651-42.838 4.491-63.644-1.427" transform="translate(-280 -3781) translate(120 3443) translate(160 338) translate(112.5 220.08)"/>
                        <path fill="#C99833" d="M44.905 96.275c.527 6.372.67 22.372 1.962 25.173 1.294 2.8 25.138 7.421 30.587 8.597 3.694.797 5.123-.857 10.687.977l1.188 8.64 11.39 6.28s.248 6.122.403 8.417c-5.66 2.907-42.226 5.965-63.644-1.427-.2-4.853-.796-11.438-.796-11.438s-1.04-33.186 1.406-36.244c2.45-3.062 6.817-8.975 6.817-8.975" transform="translate(-280 -3781) translate(120 3443) translate(160 338) translate(112.5 220.08)"/>
                        <path fill="#FFAD98" d="M55.43 46.858c2.039 3.672 3.111 8.362 2.093 13.667 7.342 8.568 20.806 5.1 23.66 1.427 0-5.302-2.705-13.667-2.705-13.667S71.75 34.191 66.443 34.211c-5.306.018-13.185 1.222-13.185 1.222l2.171 11.425" transform="translate(-280 -3781) translate(120 3443) translate(160 338) translate(112.5 220.08)"/>
                        <path fill="#FF7D71" d="M80.059 54.086c-2.704.931-9.944.114-14.228-4.78 0 0 1.633-5.51 6.223-3.264 4.588 2.243 7.483 5.926 7.483 5.926l.522 2.118" transform="translate(-280 -3781) translate(120 3443) translate(160 338) translate(112.5 220.08)"/>
                        <path fill="#FFAD98" d="M85.822 16.871c3.672 20.398 4.282 43.857-19.99 32.435C56.447 41.962 50.94 35.23 54.202 27.07c3.266-8.16 10.813-15.912 17.543-14.076 6.732 1.836 14.076 3.877 14.076 3.877" transform="translate(-280 -3781) translate(120 3443) translate(160 338) translate(112.5 220.08)"/>
                        <path fill="#FF7D71" d="M86.171 18.886s-4.226-1.608-15.687-2.73c-11.458-1.12-11.282 8.16-10.391 13.702 4.923-10.54 17.467-3.502 26.593-7.691l-.515-3.281" transform="translate(-280 -3781) translate(120 3443) translate(160 338) translate(112.5 220.08)"/>
                        <path fill="#2C3D4F" d="M46.346 31.097c1.71 4.667 4.617 9.905 9.083 15.762 5.888-.19 3.766-12.85 5.35-19.935.385-1.733.995-3.13 1.998-3.933 5.096-4.078 20.255 2.625 25.088-2.926C87.43 1.43 80.053-1.988 71.65 1.188c-8.404 3.175-18.175 0-23.55 7.573-3.648 5.144-5.383 12.447-1.753 22.336" transform="translate(-280 -3781) translate(120 3443) translate(160 338) translate(112.5 220.08)"/>
                        <path fill="#FF9D87" d="M78.203 135.495c13.376-8.633 10.52-2.174 14.196-1.818 3.676.355 13.297.493 13.06 2.947-.236 2.453-1.73 10.69-5.79 11.064-4.06.375-14.812.54-16.765.61-1.95.07-5.45-2.003-5.45-2.003l.749-10.8" transform="translate(-280 -3781) translate(120 3443) translate(160 338) translate(112.5 220.08)"/>
                        <path fill="#FF7D71" d="M80.991 133.774s2.61 7.398-.398 14.022c-1.332-.56-3.139-1.501-3.139-1.501l.749-10.8 2.788-1.72" transform="translate(-280 -3781) translate(120 3443) translate(160 338) translate(112.5 220.08)"/>
                        <path fill="#E3AF43" d="M42.962 127.68c.753-7.377 3.563-27.274 2.726-33.49 0 0-4.772-29.563-14.852-23.576-1.408 1.827-2.405 3.668-2.405 3.668-4.138 9.744-8.091 36.303-8.411 50.804-.227 10.173 2.005 18.401 11.11 20.025 9.104 1.625 41.23 4.48 46.576 3.618 3.026-4.2 3.481-11.844.877-16.245-12.492-.708-29.767-5.156-35.62-4.805" transform="translate(-280 -3781) translate(120 3443) translate(160 338) translate(112.5 220.08)"/>
                        <path fill="#4C5A69" d="M46.346 31.097c1.71 4.667 4.617 9.905 9.083 15.762 5.888-.19 3.766-12.85 5.35-19.935-3.904-.048-10.716.461-14.433 4.173" transform="translate(-280 -3781) translate(120 3443) translate(160 338) translate(112.5 220.08)"/>
                        <path fill="#FFAD98" d="M61.344 30.742s-4.448-3.672-6.318-1.429c-1.872 2.245.702 12.443 5.148 10.2 1.17-4.08 1.17-8.77 1.17-8.77" transform="translate(-280 -3781) translate(120 3443) translate(160 338) translate(112.5 220.08)"/>
                        <path fill="#C99833" d="M102.735 91.265L102.06 104.09 108.585 113.315 102.735 91.265" transform="translate(-280 -3781) translate(120 3443) translate(160 338) translate(112.5 220.08)"/>
                        <path fill="#5481FF" d="M179.942 100.899l14.939 49.237h70.228L250.168 100.9c-.53-1.742-2.45-3.168-4.272-3.168h-63.603c-1.821 0-2.88 1.426-2.35 3.168" transform="translate(-280 -3781) translate(120 3443) translate(160 338) translate(112.5 220.08)"/>
                        <path fill="#474FBF" d="M243.24 97.731c1.821 0 3.742 1.426 4.273 3.168l13.316 43.879 1.622 5.358h37.85c0-2.385-1.985-4.703-6.293-4.703-3.682 0-30.517-.623-30.517-.623l-13.323-43.911c-.53-1.742-2.45-3.168-4.272-3.168h-2.657" transform="translate(-280 -3781) translate(120 3443) translate(160 338) translate(112.5 220.08)"/>
                        <path fill="#A5B7E8" d="M3.152 313.89c-.186 0-.373-.019-.562-.055-1.64-.306-2.718-1.884-2.41-3.524l27.742-147.78c.883-4.709 5.33-8.399 10.123-8.399l289.785-.002c4.79 0 9.238 3.69 10.122 8.4l27.74 147.781c.307 1.64-.77 3.218-2.41 3.524-1.639.306-3.219-.77-3.525-2.41l-27.742-147.782c-.345-1.848-2.302-3.474-4.185-3.474l-289.785.002c-1.883 0-3.84 1.626-4.187 3.474L6.116 311.425c-.273 1.451-1.54 2.464-2.964 2.464" transform="translate(-280 -3781) translate(120 3443) translate(160 338) translate(112.5 220.08)"/>
                    </g>
                    <path fill="#CCC" d="M444.506 393.407L446.333 393.407 446.333 383.673 444.506 383.673z" transform="translate(-280 -3781) translate(120 3443) translate(160 338)"/>
                    <g>
                        <path fill="#8571C6" d="M446.67 300.937L446.333 299.147 446.67 300.937" transform="translate(-280 -3781) translate(120 3443) translate(160 338) translate(0 94.26)"/>
                        <path fill="#CCC" d="M450.432 288.245c-.421-2.108-1.555-4.005-3.11-5.452l2.016-.378 1.094 5.83" transform="translate(-280 -3781) translate(120 3443) translate(160 338) translate(0 94.26)"/>
                        <path fill="#8492BA" d="M446.67 300.937l-2.155-11.474c-.001-.016-.005-.034-.009-.05l-1.105-5.884 3.92-.736c1.556 1.447 2.69 3.344 3.111 5.452l2.381 12.69-6.143.002" transform="translate(-280 -3781) translate(120 3443) translate(160 338) translate(0 94.26)"/>
                        <path fill="#CCC" d="M138.395 299.147h-.063l3.143-16.732 2.068.388c-1.577 1.47-2.718 3.402-3.121 5.548l-2.027 10.796" transform="translate(-280 -3781) translate(120 3443) translate(160 338) translate(0 94.26)"/>
                        <path fill="#8571C6" d="M138.06 300.935L137.997 300.935 138.332 299.147 138.395 299.147 138.06 300.935" transform="translate(-280 -3781) translate(120 3443) translate(160 338) translate(0 94.26)"/>
                        <path fill="#8492BA" d="M144.142 300.937l-6.082-.002 2.362-12.584c.403-2.146 1.544-4.079 3.12-5.548l3.867.726-3.267 17.408" transform="translate(-280 -3781) translate(120 3443) translate(160 338) translate(0 94.26)"/>
                        <path fill="#A5B7E8" d="M114.586 282.125v6.17h361.701v-6.17c0-.84-.174-1.642-.493-2.374-.967-2.223-3.249-3.791-5.893-3.791H120.967c-2.639 0-4.92 1.568-5.887 3.79-.318.733-.494 1.534-.494 2.375" transform="translate(-280 -3781) translate(120 3443) translate(160 338) translate(0 94.26)"/>
                        <path fill="#B8C8F5" d="M115.08 279.75h360.714c-.967-2.222-3.249-3.79-5.893-3.79H120.967c-2.639 0-4.92 1.568-5.887 3.79" transform="translate(-280 -3781) translate(120 3443) translate(160 338) translate(0 94.26)"/>
                        <path fill="#49437B" d="M559.262 99.45v67.846c0 6.732-5.51 12.241-12.242 12.241h-90.871c-6.734 0-12.242-5.51-12.242-12.241V99.45c0-6.734 5.508-12.242 12.242-12.242h90.871c6.732 0 12.242 5.508 12.242 12.242" transform="translate(-280 -3781) translate(120 3443) translate(160 338) translate(0 94.26)"/>
                        <path fill="#5F58A1" d="M559.262 99.45v2.865H443.907v-2.864c0-6.734 5.508-12.242 12.242-12.242h90.871c6.732 0 12.242 5.508 12.242 12.242" transform="translate(-280 -3781) translate(120 3443) translate(160 338) translate(0 94.26)"/>
                        <path fill="#FFECC5" d="M544.286 95.429c0 1.426 1.155 2.582 2.581 2.582s2.581-1.156 2.581-2.582-1.155-2.582-2.581-2.582-2.581 1.156-2.581 2.582M533.592 95.429c0 1.426 1.157 2.582 2.583 2.582 1.424 0 2.581-1.156 2.581-2.582s-1.157-2.582-2.581-2.582c-1.426 0-2.583 1.156-2.583 2.582M507.233 95.997h-52.027c-.567 0-1.026-.46-1.026-1.027s.459-1.027 1.026-1.027h52.027c.569 0 1.028.46 1.028 1.027s-.46 1.027-1.028 1.027M471.733 114.666h-17.445c-.567 0-1.028-.46-1.028-1.027s.46-1.028 1.028-1.028h17.445c.567 0 1.028.46 1.028 1.028 0 .567-.46 1.027-1.028 1.027M488.871 122.93h-25.402c-.567 0-1.027-.46-1.027-1.028 0-.567.46-1.027 1.027-1.027h25.402c.567 0 1.028.46 1.028 1.027 0 .568-.461 1.028-1.028 1.028" transform="translate(-280 -3781) translate(120 3443) translate(160 338) translate(0 94.26)"/>
                        <path fill="#4BCFB9" d="M527.432 122.93h-30.91c-.568 0-1.027-.46-1.027-1.028 0-.567.459-1.027 1.028-1.027h30.91c.566 0 1.027.46 1.027 1.027 0 .568-.46 1.028-1.028 1.028M501.419 131.193H474.18c-.569 0-1.028-.46-1.028-1.028 0-.567.46-1.028 1.028-1.028h27.238c.569 0 1.028.461 1.028 1.028s-.46 1.028-1.028 1.028" transform="translate(-280 -3781) translate(120 3443) translate(160 338) translate(0 94.26)"/>
                        <path fill="#FFECC5" d="M524.984 131.193h-16.833c-.567 0-1.026-.46-1.026-1.028 0-.567.459-1.028 1.026-1.028h16.833c.567 0 1.028.461 1.028 1.028s-.46 1.028-1.028 1.028M547.938 131.193h-16.834c-.567 0-1.026-.46-1.026-1.028 0-.567.46-1.028 1.026-1.028h16.834c.567 0 1.028.461 1.028 1.028s-.461 1.028-1.028 1.028M491.625 139.455h-17.444c-.569 0-1.028-.459-1.028-1.026 0-.569.46-1.028 1.028-1.028h17.444c.567 0 1.028.46 1.028 1.028 0 .567-.461 1.026-1.028 1.026" transform="translate(-280 -3781) translate(120 3443) translate(160 338) translate(0 94.26)"/>
                        <path fill="#B58AF2" d="M522.536 139.455h-24.79c-.568 0-1.027-.459-1.027-1.026 0-.569.459-1.028 1.028-1.028h24.79c.568 0 1.027.46 1.027 1.028 0 .567-.459 1.026-1.028 1.026M503.257 147.719H485.81c-.569 0-1.028-.46-1.028-1.028 0-.567.46-1.026 1.028-1.026h17.446c.567 0 1.027.459 1.027 1.026 0 .569-.46 1.028-1.027 1.028" transform="translate(-280 -3781) translate(120 3443) translate(160 338) translate(0 94.26)"/>
                        <path fill="#FFECC5" d="M515.803 147.719h-7.346c-.567 0-1.026-.46-1.026-1.028 0-.567.459-1.026 1.026-1.026h7.346c.567 0 1.027.459 1.027 1.026 0 .569-.46 1.028-1.027 1.028" transform="translate(-280 -3781) translate(120 3443) translate(160 338) translate(0 94.26)"/>
                        <path fill="#4BCFB9" d="M491.625 155.983h-17.444c-.569 0-1.028-.461-1.028-1.028s.46-1.028 1.028-1.028h17.444c.567 0 1.028.46 1.028 1.028 0 .567-.461 1.028-1.028 1.028" transform="translate(-280 -3781) translate(120 3443) translate(160 338) translate(0 94.26)"/>
                        <path fill="#B58AF2" d="M528.962 155.983h-32.135c-.567 0-1.026-.461-1.026-1.028s.459-1.028 1.026-1.028h32.135c.57 0 1.028.46 1.028 1.028 0 .567-.459 1.028-1.028 1.028" transform="translate(-280 -3781) translate(120 3443) translate(160 338) translate(0 94.26)"/>
                        <path fill="#FFECC5" d="M491.625 164.245h-17.444c-.569 0-1.028-.46-1.028-1.026 0-.57.46-1.028 1.028-1.028h17.444c.567 0 1.028.459 1.028 1.028 0 .567-.461 1.026-1.028 1.026M480.913 172.508H463.47c-.567 0-1.027-.459-1.027-1.027 0-.567.46-1.026 1.027-1.026h17.444c.569 0 1.028.459 1.028 1.026 0 .568-.459 1.027-1.028 1.027" transform="translate(-280 -3781) translate(120 3443) translate(160 338) translate(0 94.26)"/>
                        <path fill="#4BCFB9" d="M503.867 172.508h-17.444c-.567 0-1.028-.459-1.028-1.027 0-.567.461-1.026 1.028-1.026h17.444c.569 0 1.028.459 1.028 1.026 0 .568-.46 1.027-1.028 1.027" transform="translate(-280 -3781) translate(120 3443) translate(160 338) translate(0 94.26)"/>
                        <path fill="#5A6876" d="M51.411 49.805L54.111 49.805 54.111 35.182 51.411 35.182z" transform="translate(-280 -3781) translate(120 3443) translate(160 338) translate(0 94.26)"/>
                        <path fill="#5A6876" d="M52.761 52.601c-.345 0-.69-.131-.954-.395L46.26 46.66c-.527-.527-.527-1.381 0-1.909.527-.527 1.382-.527 1.91 0l4.591 4.592 4.591-4.592c.528-.527 1.382-.527 1.91 0 .527.527.527 1.382 0 1.91l-5.546 5.545c-.264.264-.61.395-.955.395M51.411 105.533L54.111 105.533 54.111 90.91 51.411 90.91z" transform="translate(-280 -3781) translate(120 3443) translate(160 338) translate(0 94.26)"/>
                        <path fill="#5A6876" d="M52.761 108.33c-.345 0-.69-.132-.954-.396l-5.547-5.545c-.527-.527-.527-1.381 0-1.909.527-.527 1.382-.527 1.91 0l4.591 4.59 4.591-4.59c.528-.527 1.382-.527 1.91 0 .527.528.527 1.382 0 1.91l-5.546 5.544c-.264.264-.61.396-.955.396M51.41 186.044L54.11 186.044 54.11 171.421 51.41 171.421z" transform="translate(-280 -3781) translate(120 3443) translate(160 338) translate(0 94.26)"/>
                        <path fill="#5A6876" d="M52.761 188.842c-.345 0-.69-.132-.954-.396l-5.547-5.544c-.527-.528-.527-1.383 0-1.91.527-.528 1.382-.528 1.91 0l4.591 4.592 4.591-4.592c.528-.528 1.382-.528 1.91 0 .527.527.527 1.382 0 1.91l-5.546 5.544c-.264.264-.61.396-.955.396" transform="translate(-280 -3781) translate(120 3443) translate(160 338) translate(0 94.26)"/>
                        <path fill="#00D3AA" d="M84.273 30.677c0 2.476-2.026 4.501-4.502 4.501H25.75c-2.476 0-4.502-2.025-4.502-4.501V4.665c0-2.475 2.026-4.501 4.502-4.501H79.77c2.476 0 4.502 2.026 4.502 4.501v26.012" transform="translate(-280 -3781) translate(120 3443) translate(160 338) translate(0 94.26)"/>
                        <path fill="#5A6876" d="M28.002 145.449H1.373c-.745 0-1.35-.605-1.35-1.35V73.946c0-.746.605-1.35 1.35-1.35h14.624c.745 0 1.35.604 1.35 1.35 0 .746-.605 1.35-1.35 1.35H2.723v67.453h25.279c.745 0 1.35.605 1.35 1.35 0 .745-.605 1.35-1.35 1.35" transform="translate(-280 -3781) translate(120 3443) translate(160 338) translate(0 94.26)"/>
                        <path fill="#5A6876" d="M11.898 80.842c-.346 0-.691-.132-.955-.396-.527-.527-.527-1.382 0-1.909l4.591-4.592-4.59-4.59c-.528-.528-.528-1.383 0-1.91.526-.527 1.381-.527 1.908 0l5.546 5.545c.527.527.527 1.382 0 1.91l-5.546 5.546c-.263.264-.609.396-.954.396" transform="translate(-280 -3781) translate(120 3443) translate(160 338) translate(0 94.26)"/>
                        <path fill="#00D3AA" d="M84.273 87.198c0 2.476-2.026 4.502-4.502 4.502H25.75c-2.476 0-4.502-2.026-4.502-4.502v-26.01c0-2.476 2.026-4.502 4.502-4.502H79.77c2.476 0 4.502 2.026 4.502 4.502v26.01M84.273 224.503c0 2.475-2.026 4.502-4.502 4.502H25.75c-2.476 0-4.502-2.027-4.502-4.502v-26.01c0-2.477 2.026-4.502 4.502-4.502H79.77c2.476 0 4.502 2.025 4.502 4.502v26.01M56.532 171.216c-2.074 2.074-5.47 2.074-7.544 0l-23.469-23.47c-2.074-2.074-2.074-5.469 0-7.544l23.47-23.47c2.073-2.074 5.469-2.074 7.543 0l23.47 23.47c2.074 2.074 2.074 5.468 0 7.544l-23.47 23.47" transform="translate(-280 -3781) translate(120 3443) translate(160 338) translate(0 94.26)"/>
                        <path fill="#00EAFF" d="M353.432 141.273c0 1.16-.949 2.108-2.108 2.108h-46.728c-1.16 0-2.108-.949-2.108-2.108V117.4c0-1.16.949-2.107 2.108-2.107h46.728c1.16 0 2.108.948 2.108 2.107v23.873" transform="translate(-280 -3781) translate(120 3443) translate(160 338) translate(0 94.26)"/>
                        <path fill="#2D3A69" d="M318.634 135.306l-8.714-3.908c-.246-.117-.439-.273-.576-.47-.138-.196-.208-.419-.208-.666v-.174c0-.249.07-.47.208-.666.137-.198.33-.353.576-.47l8.714-3.91c.119-.044.234-.065.351-.065.247 0 .456.083.623.252.166.167.25.375.25.623 0 .173-.054.337-.164.49-.108.153-.25.266-.424.338l-7.863 3.494 7.863 3.496c.174.072.316.183.424.336.11.153.164.317.164.494 0 .246-.084.453-.25.62-.167.168-.376.25-.623.25-.117 0-.232-.019-.35-.064M322.337 138.45c-.168-.172-.25-.385-.25-.631 0-.088.021-.196.064-.33l5.787-16.924c.06-.173.16-.32.306-.437.146-.115.328-.173.546-.173.263 0 .477.087.644.261.17.176.25.387.25.634 0 .087-.021.196-.064.327l-5.786 16.924c-.059.177-.16.32-.307.438-.144.117-.326.174-.546.174-.263 0-.477-.088-.644-.262M337.82 135.12c-.167-.167-.252-.374-.252-.62 0-.177.054-.34.164-.494.108-.153.25-.264.425-.336l7.862-3.496-7.862-3.494c-.175-.072-.317-.185-.425-.338-.11-.153-.164-.317-.164-.49 0-.248.085-.456.252-.623.168-.169.375-.252.621-.252.132 0 .247.021.351.066l8.712 3.909c.249.117.44.272.578.47.139.196.209.417.209.666v.174c0 .247-.07.47-.209.666-.138.197-.33.353-.578.47l-8.712 3.908c-.104.045-.22.065-.35.065-.247 0-.454-.083-.622-.25" transform="translate(-280 -3781) translate(120 3443) translate(160 338) translate(0 94.26)"/>
                        <path fill="#FF6E54" d="M259.443 109.818c0 1.048-.859 1.905-1.906 1.905H219.69c-1.05 0-1.906-.857-1.906-1.905V85.54c0-1.048.857-1.906 1.906-1.906h37.847c1.047 0 1.906.858 1.906 1.906v24.278" transform="translate(-280 -3781) translate(120 3443) translate(160 338) translate(0 94.26)"/>
                        <path fill="#2D3A69" d="M232.607 105.872c-.46-.327-.69-.917-.69-1.772v-3.98c0-.266-.03-.485-.093-.662-.063-.175-.222-.342-.472-.498-.252-.159-.642-.28-1.17-.369-.214-.037-.374-.123-.482-.255-.105-.132-.159-.297-.159-.499 0-.2.054-.368.159-.5.108-.133.268-.217.482-.255.528-.088.918-.21 1.17-.369.25-.157.409-.322.472-.498.063-.177.093-.397.093-.66v-3.982c0-.854.23-1.446.69-1.773.459-.326 1.11-.491 1.951-.491h.227c.176 0 .33.066.462.198s.198.287.198.462c0 .177-.066.332-.198.464-.133.132-.286.198-.462.198h-.283c-.479 0-.783.075-.914.226-.133.15-.198.339-.198.566v4.188c0 1.069-.567 1.81-1.698 2.226 1.13.415 1.698 1.156 1.698 2.226v4.188c0 .226.065.415.198.566.131.15.435.226.914.226h.283c.176 0 .33.066.462.198.132.133.198.286.198.463 0 .175-.066.33-.198.462-.133.132-.286.198-.462.198h-.227c-.84 0-1.492-.164-1.951-.492M241.605 106.166c-.133-.132-.198-.287-.198-.462 0-.177.065-.33.198-.463.131-.132.286-.198.463-.198h.28c.481 0 .783-.076.917-.226.131-.151.198-.34.198-.566v-4.188c0-1.07.567-1.811 1.697-2.226-1.13-.416-1.697-1.157-1.697-2.226v-4.188c0-.227-.067-.416-.198-.566-.134-.151-.436-.226-.917-.226h-.28c-.177 0-.332-.066-.463-.198-.133-.132-.198-.287-.198-.464 0-.175.065-.33.198-.462.131-.132.286-.198.463-.198h.225c.842 0 1.494.165 1.953.491.459.327.689.919.689 1.773v3.981c0 .264.03.484.094.66.063.177.221.342.471.5.252.158.641.28 1.168.368.216.038.375.123.483.255.106.132.16.3.16.5 0 .202-.054.367-.16.5-.108.13-.267.217-.483.254-.527.09-.916.21-1.168.369-.25.156-.408.323-.471.498-.063.177-.094.396-.094.661v3.98c0 .856-.23 1.446-.69 1.773-.458.328-1.11.492-1.952.492h-.225c-.177 0-.332-.066-.463-.198" transform="translate(-280 -3781) translate(120 3443) translate(160 338) translate(0 94.26)"/>
                        <path fill="#2C3D4F" d="M13.507 440.482L583.178 440.482 583.178 437.782 13.507 437.782z" transform="translate(-280 -3781) translate(120 3443) translate(160 338) translate(0 94.26)"/>
                    </g>
                    <g>
                        <path fill="#F55877" d="M46.656 117.357L52.444 117.357 52.444 95.36 46.656 95.36z" transform="translate(-280 -3781) translate(120 3443) translate(160 338) translate(200)"/>
                        <path fill="#32C5FF" d="M43.599 107.26L55.501 107.26 55.501 95.36 43.599 95.36z" transform="translate(-280 -3781) translate(120 3443) translate(160 338) translate(200)"/>
                        <path fill="#F55877" d="M86.365 117.357L92.15 117.357 92.15 95.36 86.365 95.36z" transform="translate(-280 -3781) translate(120 3443) translate(160 338) translate(200)"/>
                        <path fill="#32C5FF" d="M83.308 107.26L95.207 107.26 95.207 95.36 83.308 95.36z" transform="translate(-280 -3781) translate(120 3443) translate(160 338) translate(200)"/>
                        <path fill="#F55877" d="M126.071 117.357L131.859 117.357 131.859 95.36 126.071 95.36z" transform="translate(-280 -3781) translate(120 3443) translate(160 338) translate(200)"/>
                        <path fill="#32C5FF" d="M123.016 107.26L134.916 107.26 134.916 95.36 123.016 95.36zM163.16 61.6c-1.558 0-3.057.233-4.471.664 1.868-15.996-13.222-29.72-28.959-26.404-1.443-6.4-4.213-12.299-8.006-17.39C100.408-10.994 53.278-3.742 41.322 29.82c-9.737-3.075-21.129-1-29.126 5.447-23.649 17.813-10.055 57.64 19.751 57.038H163.16c5.67 0 10.617-3.074 13.275-7.645 6.014-9.83-1.706-23.355-13.275-23.06" transform="translate(-280 -3781) translate(120 3443) translate(160 338) translate(200)"/>
                        <path fill="#FFF" d="M64.592 54.135c-.156.248-.319.435-.489.56-.17.123-.39.184-.66.184-.239 0-.494-.076-.768-.224-.273-.15-.584-.319-.931-.505-.345-.186-.741-.354-1.186-.504-.445-.15-.953-.225-1.521-.225-.982 0-1.713.21-2.194.628-.482.42-.722.985-.722 1.7 0 .454.146.83.435 1.132.289.299.668.559 1.14.775.47.217 1.008.416 1.613.598.605.18 1.222.382 1.854.605.632.221 1.25.484 1.854.783.605.3 1.142.682 1.614 1.149.469.464.85 1.03 1.14 1.699.289.665.434 1.47.434 2.41 0 1.045-.182 2.024-.544 2.933-.362.911-.887 1.704-1.575 2.382-.687.677-1.535 1.21-2.544 1.598-1.008.387-2.153.581-3.436.581-.702 0-1.419-.073-2.148-.216-.729-.146-1.434-.35-2.116-.612-.683-.265-1.325-.579-1.925-.94-.6-.363-1.123-.766-1.567-1.211l1.552-2.45c.124-.177.287-.323.489-.442.201-.119.42-.18.658-.18.311 0 .622.1.938.297.316.194.673.413 1.072.651.398.238.855.455 1.373.651.517.197 1.127.294 1.83.294.952 0 1.691-.208 2.218-.629.528-.418.792-1.081.792-1.992 0-.528-.145-.958-.435-1.288-.289-.33-.67-.605-1.14-.822-.47-.218-1.005-.408-1.605-.573-.6-.165-1.215-.35-1.847-.552-.632-.201-1.247-.45-1.847-.743-.598-.297-1.135-.683-1.604-1.164-.471-.481-.85-1.082-1.142-1.801-.29-.72-.432-1.606-.432-2.66 0-.849.17-1.676.51-2.482.342-.807.843-1.526 1.506-2.157.661-.63 1.473-1.135 2.435-1.512.963-.378 2.063-.567 3.305-.567.693 0 1.368.055 2.024.163.656.109 1.28.27 1.869.481.59.212 1.14.466 1.652.76.513.295.97.629 1.373 1.001l-1.302 2.436M74.1 69.213c.622 0 1.164-.107 1.63-.325.465-.217.936-.569 1.413-1.055V65.6c-.963.041-1.755.124-2.374.248-.62.124-1.113.28-1.475.464-.362.187-.613.398-.751.637-.141.238-.21.495-.21.775 0 .549.149.935.45 1.156.3.224.74.333 1.317.333zm5.524 2.933c-.455 0-.8-.063-1.03-.187-.234-.124-.428-.381-.584-.775l-.34-.884c-.403.342-.792.641-1.164.899-.372.26-.758.478-1.157.66-.398.18-.82.317-1.27.404-.45.087-.95.131-1.497.131-.734 0-1.402-.095-2.003-.287-.6-.191-1.108-.473-1.528-.845-.418-.372-.741-.836-.97-1.388-.226-.554-.34-1.193-.34-1.917 0-.569.143-1.152.435-1.752.29-.6.79-1.147 1.504-1.638.715-.49 1.675-.901 2.885-1.232 1.21-.333 2.736-.517 4.578-.559v-.683c0-.94-.195-1.62-.583-2.04-.387-.419-.938-.628-1.653-.628-.568 0-1.033.061-1.395.185-.362.124-.685.265-.97.42-.284.156-.56.294-.83.418-.268.124-.588.187-.963.187-.33 0-.61-.082-.835-.247-.229-.166-.416-.362-.56-.59l-.87-1.505c.973-.858 2.052-1.497 3.235-1.917 1.186-.418 2.454-.627 3.81-.627.972 0 1.85.158 2.63.471.78.316 1.443.756 1.985 1.32.544.563.96 1.234 1.249 2.01.289.774.435 1.622.435 2.543v10.053h-2.204zM90.469 69.213c.62 0 1.161-.107 1.628-.325.467-.217.936-.569 1.412-1.055V65.6c-.962.041-1.752.124-2.374.248-.62.124-1.11.28-1.473.464-.362.187-.612.398-.753.637-.139.238-.21.495-.21.775 0 .549.15.935.45 1.156.3.224.74.333 1.32.333zm5.52 2.933c-.454 0-.796-.063-1.03-.187-.233-.124-.427-.381-.583-.775l-.34-.884c-.403.342-.792.641-1.164.899-.372.26-.758.478-1.154.66-.399.18-.824.317-1.273.404-.45.087-.948.131-1.497.131-.734 0-1.402-.095-2.003-.287-.597-.191-1.108-.473-1.526-.845-.42-.372-.743-.836-.97-1.388-.228-.554-.342-1.193-.342-1.917 0-.569.146-1.152.435-1.752.29-.6.79-1.147 1.504-1.638.715-.49 1.677-.901 2.887-1.232 1.21-.333 2.734-.517 4.576-.559v-.683c0-.94-.195-1.62-.58-2.04-.39-.419-.941-.628-1.653-.628-.569 0-1.036.061-1.398.185-.362.124-.685.265-.97.42-.283.156-.56.294-.828.418-.27.124-.59.187-.962.187-.333 0-.612-.082-.838-.247-.229-.166-.414-.362-.56-.59l-.867-1.505c.972-.858 2.049-1.497 3.234-1.917 1.184-.418 2.452-.627 3.808-.627.972 0 1.85.158 2.63.471.78.316 1.443.756 1.985 1.32.544.563.96 1.234 1.249 2.01.29.774.435 1.622.435 2.543v10.053H95.99zM114.436 54.135c-.156.248-.318.435-.488.56-.17.123-.392.184-.659.184-.238 0-.496-.076-.768-.224-.274-.15-.585-.319-.93-.505-.348-.186-.744-.354-1.189-.504-.445-.15-.95-.225-1.519-.225-.984 0-1.715.21-2.196.628-.481.42-.722.985-.722 1.7 0 .454.146.83.435 1.132.29.299.67.559 1.14.775.471.217 1.008.416 1.613.598.605.18 1.225.382 1.854.605.632.221 1.25.484 1.854.783.605.3 1.142.682 1.614 1.149.471.464.85 1.03 1.14 1.699.289.665.435 1.47.435 2.41 0 1.045-.18 2.024-.542 2.933-.362.911-.887 1.704-1.575 2.382-.688.677-1.536 1.21-2.544 1.598-1.009.387-2.156.581-3.436.581-.705 0-1.422-.073-2.15-.216-.73-.146-1.435-.35-2.117-.612-.683-.265-1.325-.579-1.925-.94-.6-.363-1.123-.766-1.567-1.211l1.553-2.45c.123-.177.286-.323.488-.442s.42-.18.658-.18c.312 0 .625.1.94.297.314.194.672.413 1.07.651.399.238.855.455 1.373.651.518.197 1.128.294 1.83.294.952 0 1.691-.208 2.218-.629.528-.418.793-1.081.793-1.992 0-.528-.146-.958-.435-1.288-.29-.33-.669-.605-1.14-.822-.471-.218-1.006-.408-1.606-.573-.6-.165-1.215-.35-1.847-.552-.63-.201-1.244-.45-1.844-.743-.6-.297-1.135-.683-1.607-1.164-.471-.481-.85-1.082-1.14-1.801-.289-.72-.434-1.606-.434-2.66 0-.849.17-1.676.512-2.482.34-.807.841-1.526 1.505-2.157.66-.63 1.472-1.135 2.434-1.512.963-.378 2.064-.567 3.305-.567.693 0 1.368.055 2.024.163.657.109 1.281.27 1.872.481.588.212 1.14.466 1.65.76.512.295.97.629 1.372 1.001l-1.302 2.436" transform="translate(-280 -3781) translate(120 3443) translate(160 338) translate(200)"/>
                    </g>
                </g>
            </g>
        </g>
    </g>
</svg>
