<svg width="1225" height="820" viewBox="0 0 1225 820" fill="none" xmlns="http://www.w3.org/2000/svg">
<path d="M94.3782 719.748V118.744H505.101L542.209 19H84.7201C62.2509 19 40.7021 27.9208 24.8139 43.7999C8.92584 59.6791 0 81.2158 0 103.672L0 820H896V719.748H94.3782Z" fill="#20536F"/>
<path d="M255.97 418H300V618H198V476.355C197.999 460.966 204.091 446.2 214.948 435.271C225.805 424.341 240.549 418.134 255.97 418Z" fill="#F15D2D"/>
<path d="M457.402 321H501V618H400V379.212C400.044 363.845 406.095 349.116 416.841 338.218C427.587 327.321 442.161 321.134 457.402 321Z" fill="#F15D2D"/>
<path d="M655.97 217H700V618H598V275.377C597.999 259.982 604.091 245.21 614.948 234.277C625.805 223.344 640.549 217.134 655.97 217Z" fill="#F15D2D"/>
<path d="M939 341H1082.42C1090.66 341.022 1098.82 339.424 1106.43 336.296C1114.05 333.169 1120.96 328.575 1126.78 322.78C1132.6 316.984 1137.2 310.101 1140.33 302.528C1143.46 294.955 1145.04 286.842 1145 278.657V239H939V341Z" fill="#20536F"/>
<path d="M807.309 25.3177C801.382 31.0736 796.7 37.986 793.552 45.6267C790.404 53.2674 788.859 61.4735 789.01 69.7365V607H911V341.844V238.935V109.917V7.00771H851.699C843.444 6.87604 835.249 8.43207 827.616 11.5805C819.983 14.7289 813.073 19.4034 807.309 25.3177Z" fill="#F15D2D"/>
<path d="M1225 7H939V110H1225V7Z" fill="#20536F"/>
<path d="M183 390C183 390 397.175 366.261 682.007 134.465L730.128 179.739L763 0L577.63 37.4739L619.652 84.7826C619.652 84.7826 378.706 322.174 183 390Z" fill="#F15D2D"/>
</svg>
