<svg width="641" height="641" viewBox="0 0 641 641" fill="none" xmlns="http://www.w3.org/2000/svg">
<circle cx="320.5" cy="320.5" r="320.5" fill="white"/>
<path d="M139.975 428.471V218.488H283.476L296.441 183.639H136.6C128.75 183.639 121.221 186.755 115.67 192.303C110.119 197.851 107 205.376 107 213.222V463.498H420.051V428.471H139.975Z" fill="#20536F"/>
<path d="M196.433 323.044H211.816V392.921H176.179V343.432C176.179 338.056 178.307 332.897 182.1 329.078C185.893 325.26 191.045 323.091 196.433 323.044Z" fill="#F15D2D"/>
<path d="M266.81 289.153H282.043V392.921H246.755V309.492C246.77 304.123 248.884 298.977 252.639 295.169C256.393 291.362 261.485 289.2 266.81 289.153Z" fill="#F15D2D"/>
<path d="M336.188 252.817H351.571V392.922H315.934V273.213C315.933 267.835 318.062 262.674 321.855 258.854C325.648 255.034 330.8 252.864 336.188 252.817Z" fill="#F15D2D"/>
<path d="M435.075 296.141H485.185C488.063 296.149 490.915 295.591 493.575 294.498C496.235 293.405 498.651 291.8 500.683 289.775C502.716 287.75 504.325 285.346 505.417 282.7C506.51 280.054 507.064 277.219 507.049 274.36V260.504H435.075V296.141Z" fill="#20536F"/>
<path d="M389.064 185.845C386.993 187.856 385.357 190.271 384.257 192.941C383.158 195.611 382.618 198.478 382.671 201.365V389.078H425.292V296.436V260.48V215.403V179.448H404.573C401.689 179.402 398.826 179.946 396.159 181.046C393.492 182.146 391.078 183.779 389.064 185.845Z" fill="#F15D2D"/>
<path d="M535 179.445H435.075V215.432H535V179.445Z" fill="#20536F"/>
<path d="M170.938 313.261C170.938 313.261 245.768 304.967 345.285 223.981L362.098 239.799L373.583 177L308.817 190.093L323.499 206.622C323.499 206.622 239.315 289.564 170.938 313.261Z" fill="#F15D2D"/>
</svg>
