<svg xmlns="http://www.w3.org/2000/svg" viewBox="0 0 258.7 48.44"><defs><style>.cls-1{fill:#20536f;}.cls-2{fill:#f15d2d;}</style></defs><g id="Layer_2" data-name="Layer 2"><g id="Layer_1-2" data-name="Layer 1"><path class="cls-1" d="M76.26.4H80a3.37,3.37,0,0,1,2.47,1,3.36,3.36,0,0,1,1,2.47V6.05h-7.2Zm0,8H80a3.52,3.52,0,0,1,3.5,3.5V35.79h-7.2Z"/><path class="cls-1" d="M109.75,35.79h-3.61a3.45,3.45,0,0,1-2.52-1,3.41,3.41,0,0,1-1-2.52v-14a4.21,4.21,0,0,0-1.5-3.6,5.34,5.34,0,0,0-3.34-1.14,5.16,5.16,0,0,0-3.29,1.14,4.29,4.29,0,0,0-1.44,3.6V35.79h-7.2v-16q0-7,3.65-9.36A16,16,0,0,1,97.61,7.8a15.48,15.48,0,0,1,8.33,2.37c2.53,1.58,3.81,4.77,3.81,9.57Z"/><path class="cls-1" d="M130.47,34.65A12.55,12.55,0,0,1,125.89,36a41.29,41.29,0,0,1-4.27.26,10.8,10.8,0,0,1-6.48-2c-1.85-1.33-2.77-3.55-2.77-6.63,0-2.88.83-4.94,2.52-6.17A14.42,14.42,0,0,1,121.32,19a5.6,5.6,0,0,0,1.23-.16c.48-.1,1-.19,1.65-.26q4.51-.62,4.52-2.67a2,2,0,0,0-1.59-2,10.94,10.94,0,0,0-2.93-.46,7.67,7.67,0,0,0-2.58.41A2.81,2.81,0,0,0,120,15.42h-6.89A7.88,7.88,0,0,1,116,10.17q2.77-2.37,7.92-2.37c3.84,0,6.72.66,8.64,2a6.59,6.59,0,0,1,3,5.76v9.36A11.86,11.86,0,0,1,134,31.31,9.08,9.08,0,0,1,130.47,34.65ZM128.83,22a19.48,19.48,0,0,1-4,1.34l-2.36.51a6.13,6.13,0,0,0-2.68,1.34,4.2,4.2,0,0,0-.72,2.26,3.33,3.33,0,0,0,.93,2.47,3.9,3.9,0,0,0,2.67.82,6.12,6.12,0,0,0,4.53-1.64,6.12,6.12,0,0,0,1.65-4.53Z"/><path class="cls-2" d="M138,26.73h7a3.78,3.78,0,0,0,1.54,3.09,7.29,7.29,0,0,0,4.12,1,6.61,6.61,0,0,0,3.18-.72,2.18,2.18,0,0,0,1.24-2q0-1.84-4.32-2.78a19.83,19.83,0,0,1-2.78-.61c-3.64-.89-6.07-2-7.3-3.19a6.3,6.3,0,0,1-2.06-4.94,8.17,8.17,0,0,1,3-6.48,12.82,12.82,0,0,1,8-2.37,14,14,0,0,1,8.54,2.37,9,9,0,0,1,3.18,6.69H157a3.28,3.28,0,0,1-3-1.75l-.83-.83a5.57,5.57,0,0,0-3.39-.92,6.06,6.06,0,0,0-3.09.62,2.08,2.08,0,0,0-.92,1.85q0,1.65,5.35,2.77a8.49,8.49,0,0,0,1.08.31,4,4,0,0,0,.87.11c3.5.89,5.93,1.92,7.31,3.08A6.5,6.5,0,0,1,162.31,27,8.25,8.25,0,0,1,159,34q-3.09,2.26-9.26,2.26c-3.91,0-6.83-.79-8.74-2.37A8.26,8.26,0,0,1,138,27Z"/><path class="cls-2" d="M168.94,33.32a10.15,10.15,0,0,1-3.08-5,22.87,22.87,0,0,1-.93-6.54,20.81,20.81,0,0,1,.77-5.55,11.49,11.49,0,0,1,2.42-4.63A10.67,10.67,0,0,1,175,8a15.78,15.78,0,0,1,7.62.67A10.48,10.48,0,0,1,188.39,14a17.12,17.12,0,0,1,1.75,7.92,20,20,0,0,1-.72,5.66,14.46,14.46,0,0,1-1.86,4,10.27,10.27,0,0,1-6.27,4.22,14.14,14.14,0,0,1-6.84.15A12,12,0,0,1,168.94,33.32Zm4.94-18.11q-2.16,2.37-1.95,7.05c.13,3.12.72,5.3,1.75,6.53a4.62,4.62,0,0,0,2.16,1.39,4.86,4.86,0,0,0,3.13.1A5.24,5.24,0,0,0,181.8,28c.83-1.24,1.27-3.23,1.34-6A10.48,10.48,0,0,0,182,16.44a5.35,5.35,0,0,0-2.73-2.36,5,5,0,0,0-3.09-.05A5.41,5.41,0,0,0,173.88,15.21Z"/><path class="cls-2" d="M193.68.4h3.71a3.47,3.47,0,0,1,2.47,1,3.23,3.23,0,0,1,1,2.42v32h-7.2Z"/><path class="cls-2" d="M221.1,35.79h-7.31L204.23,8.42h7.61l5.45,19.24,4.84-16.77a3.21,3.21,0,0,1,3.29-2.47h5.35Z"/><path class="cls-2" d="M253.14,27.35h5.14A11.15,11.15,0,0,1,254,33.93a13.07,13.07,0,0,1-8,2.37q-5.87,0-9.16-3.81T233.49,21.9q0-6.58,3.19-10.29t9.16-3.81q6.16,0,9.56,3.71c2.2,2.53,3.3,6.07,3.3,10.59v1.13a1.67,1.67,0,0,1-.11.72H240.8a7.06,7.06,0,0,0,1.54,4.74,4.88,4.88,0,0,0,4,1.64,5.79,5.79,0,0,0,3-.72,1.26,1.26,0,0,0,.57-.36l.57-.56a2.15,2.15,0,0,1,.77-.83A3.07,3.07,0,0,1,253.14,27.35Zm-12.34-8h10.49a6.69,6.69,0,0,0-1.44-4.12A4.94,4.94,0,0,0,246,13.77a5,5,0,0,0-3.7,1.44A5.87,5.87,0,0,0,240.8,19.33Z"/><path class="cls-1" d="M5.57,42.49V7H29.81L32,1.11H5a5,5,0,0,0-5,5V48.41H52.88V42.49Z"/><path class="cls-2" d="M15.11,24.65H17.7a0,0,0,0,1,0,0V36.44a0,0,0,0,1,0,0h-6a0,0,0,0,1,0,0V28.09A3.44,3.44,0,0,1,15.11,24.65Z"/><path class="cls-2" d="M27,18.94h2.59a0,0,0,0,1,0,0v17.5a0,0,0,0,1,0,0h-6a0,0,0,0,1,0,0V22.37A3.44,3.44,0,0,1,27,18.94Z"/><path class="cls-2" d="M38.71,12.81H41.3a0,0,0,0,1,0,0V36.44a0,0,0,0,1,0,0h-6a0,0,0,0,1,0,0V16.25A3.44,3.44,0,0,1,38.71,12.81Z"/><path class="cls-1" d="M55.39,20.15h8.48a3.69,3.69,0,0,0,3.7-3.71V14.08H55.39Z"/><path class="cls-2" d="M47.66,1.48A3.56,3.56,0,0,0,46.58,4.1V35.79h7.2V20.15h0V14.08h0V6.47h0V.4h-3.5A3.58,3.58,0,0,0,47.66,1.48Z"/><rect class="cls-1" x="55.39" y="0.4" width="16.91" height="6.07"/><path class="cls-2" d="M10.77,23s12.64-1.4,29.45-15.07l2.84,2.67L45,0,34.06,2.21,36.54,5S22.32,19,10.77,23Z"/><path class="cls-2" d="M55.39,41.83h.69L60.17,47V41.83h.71v6.5H60.3L56.1,43v5.33h-.71Z"/><path class="cls-2" d="M64.11,41.83h4.7v.66h-4v2.24h3.54v.65H64.85v2.29h4v.66H64.11Z"/><path class="cls-2" d="M73.73,45l-2.41-3.18h.87l2,2.65,2-2.65H77L74.61,45l2.49,3.33h-.87l-2.08-2.8-2.08,2.8h-.84Z"/><path class="cls-2" d="M81.56,42.51H79.38v-.68h5.09v.68H82.29v5.82h-.73Z"/><path class="cls-2" d="M94.44,48.44a3.5,3.5,0,0,1-1.38-.26,3.08,3.08,0,0,1-1-.72,3,3,0,0,1-.66-1.06,3.7,3.7,0,0,1-.23-1.3v0a3.46,3.46,0,0,1,.24-1.28A3.55,3.55,0,0,1,92,42.73a3.35,3.35,0,0,1,1-.74,3.19,3.19,0,0,1,1.33-.27,5.78,5.78,0,0,1,.75.05,4.16,4.16,0,0,1,.63.17,3.55,3.55,0,0,1,.55.28,4.1,4.1,0,0,1,.49.36l-.47.56a2.88,2.88,0,0,0-.39-.3,3.09,3.09,0,0,0-.44-.24,3.55,3.55,0,0,0-.52-.15,3.1,3.1,0,0,0-.63-.05,2.31,2.31,0,0,0-1,.21,2.34,2.34,0,0,0-.78.58,2.56,2.56,0,0,0-.51.84,3,3,0,0,0-.19,1v0a2.83,2.83,0,0,0,.19,1.07,2.55,2.55,0,0,0,.51.86,2.22,2.22,0,0,0,.81.56,2.57,2.57,0,0,0,1.06.21,2.76,2.76,0,0,0,1.05-.19,3.1,3.1,0,0,0,.83-.46V45.51h-2v-.65H97v2.58a3.83,3.83,0,0,1-1.11.7A3.61,3.61,0,0,1,94.44,48.44Z"/><path class="cls-2" d="M100.09,41.83h4.69v.66h-4v2.24h3.55v.65h-3.55v2.29h4v.66h-4.74Z"/><path class="cls-2" d="M107.7,41.83h.68l4.1,5.21V41.83h.71v6.5h-.58L108.41,43v5.33h-.71Z"/><path class="cls-2" d="M116.42,41.83h4.69v.66h-4v2.24h3.55v.65h-3.55v2.29h4v.66h-4.74Z"/><path class="cls-2" d="M124,41.83h2.79a3.2,3.2,0,0,1,1.07.17,2.34,2.34,0,0,1,.78.48,1.7,1.7,0,0,1,.37.57,1.8,1.8,0,0,1,.13.71v0a1.9,1.9,0,0,1-.13.73,1.62,1.62,0,0,1-.37.55,1.87,1.87,0,0,1-.56.39,2.38,2.38,0,0,1-.7.22l2,2.66h-.9l-1.88-2.53h-1.86v2.53H124Zm2.73,3.31a2.36,2.36,0,0,0,.67-.09,1.64,1.64,0,0,0,.53-.26,1.21,1.21,0,0,0,.48-1v0a1.12,1.12,0,0,0-.44-.94,1.94,1.94,0,0,0-1.23-.34h-2v2.63Z"/><path class="cls-2" d="M134.53,41.78h.69l3,6.55h-.79l-.76-1.72h-3.54l-.77,1.72h-.75ZM136.34,46l-1.48-3.31L133.38,46Z"/><path class="cls-2" d="M142.57,42.51h-2.18v-.68h5.09v.68H143.3v5.82h-.73Z"/><path class="cls-2" d="M148.32,41.83h.73v6.5h-.73Z"/><path class="cls-2" d="M155.36,48.44a3.32,3.32,0,0,1-1.35-.27,3.2,3.2,0,0,1-1-.73,3.13,3.13,0,0,1-.67-1.07,3.41,3.41,0,0,1-.24-1.27v0a3.46,3.46,0,0,1,.24-1.28,3.21,3.21,0,0,1,.68-1.07,3.22,3.22,0,0,1,2.4-1,3.25,3.25,0,0,1,1.35.27,3.14,3.14,0,0,1,1.05.73,3.24,3.24,0,0,1,.67,1.06,3.46,3.46,0,0,1,.24,1.28v0a3.51,3.51,0,0,1-.25,1.28,3.28,3.28,0,0,1-.67,1.07,3.14,3.14,0,0,1-1.05.73A3.18,3.18,0,0,1,155.36,48.44Zm0-.68a2.5,2.5,0,0,0,1-.21,2.43,2.43,0,0,0,.8-.57,2.58,2.58,0,0,0,.52-.84,2.78,2.78,0,0,0,.19-1v0a2.84,2.84,0,0,0-.19-1,2.59,2.59,0,0,0-1.34-1.42,2.5,2.5,0,0,0-1-.21,2.61,2.61,0,0,0-1,.2,2.32,2.32,0,0,0-.8.58A2.61,2.61,0,0,0,153,44a2.75,2.75,0,0,0-.19,1v0a2.75,2.75,0,0,0,.72,1.89,2.7,2.7,0,0,0,.82.58A2.45,2.45,0,0,0,155.38,47.76Z"/><path class="cls-2" d="M161.63,41.83h.68l4.1,5.21V41.83h.71v6.5h-.59L162.34,43v5.33h-.71Z"/><path class="cls-2" d="M174.59,41.83h.73v6.5h-.73Z"/><path class="cls-2" d="M178.62,41.83h.68L183.4,47V41.83h.71v6.5h-.58L179.33,43v5.33h-.71Z"/><path class="cls-2" d="M189.06,42.51h-2.19v-.68H192v.68h-2.18v5.82h-.73Z"/><path class="cls-2" d="M194.74,41.83h4.7v.66h-4v2.24H199v.65h-3.54v2.29h4v.66h-4.75Z"/><path class="cls-2" d="M202.35,41.83h.74v5.82h3.65v.68h-4.39Z"/><path class="cls-2" d="M209.49,41.83h.73v5.82h3.66v.68h-4.39Z"/><path class="cls-2" d="M216.69,41.83h.73v6.5h-.73Z"/><path class="cls-2" d="M223.73,48.44a3.57,3.57,0,0,1-1.38-.26,3,3,0,0,1-1-.72,3,3,0,0,1-.66-1.06,3.49,3.49,0,0,1-.23-1.3v0a3.46,3.46,0,0,1,.24-1.28,3.2,3.2,0,0,1,.66-1.07,3.3,3.3,0,0,1,1-.74,3.24,3.24,0,0,1,1.34-.27,5.5,5.5,0,0,1,.74.05,3.61,3.61,0,0,1,.63.17,3.15,3.15,0,0,1,.55.28,4.2,4.2,0,0,1,.5.36l-.48.56a2.88,2.88,0,0,0-.39-.3,2.63,2.63,0,0,0-.44-.24,3.22,3.22,0,0,0-.52-.15,2.94,2.94,0,0,0-.62-.05,2.39,2.39,0,0,0-1,.21,2.21,2.21,0,0,0-.77.58,2.76,2.76,0,0,0-.52.84,3,3,0,0,0-.18,1v0a3,3,0,0,0,.18,1.07,2.42,2.42,0,0,0,.52.86,2.27,2.27,0,0,0,.8.56,2.62,2.62,0,0,0,1.07.21,2.84,2.84,0,0,0,1.05-.19,3,3,0,0,0,.82-.46V45.51h-2v-.65h2.68v2.58a3.89,3.89,0,0,1-1.12.7A3.57,3.57,0,0,1,223.73,48.44Z"/><path class="cls-2" d="M229.38,41.83h4.7v.66h-4v2.24h3.54v.65h-3.54v2.29h4v.66h-4.74Z"/><path class="cls-2" d="M237,41.83h.69L241.77,47V41.83h.72v6.5h-.59L237.71,43v5.33H237Z"/><path class="cls-2" d="M248.68,48.44a3.28,3.28,0,0,1-1.3-.26,3.51,3.51,0,0,1-1-.71,3.44,3.44,0,0,1-.68-1.06,3.58,3.58,0,0,1-.24-1.31v0a3.53,3.53,0,0,1,.24-1.3,3.37,3.37,0,0,1,.68-1.07,3.32,3.32,0,0,1,1-.73,3.41,3.41,0,0,1,1.32-.26,3.84,3.84,0,0,1,.8.07,3.49,3.49,0,0,1,.67.21,2.84,2.84,0,0,1,.56.33,3.28,3.28,0,0,1,.5.42l-.5.54a3.65,3.65,0,0,0-.89-.64,2.41,2.41,0,0,0-1.15-.25,2.38,2.38,0,0,0-1,.2,2.5,2.5,0,0,0-.79.57,2.4,2.4,0,0,0-.53.85,2.75,2.75,0,0,0-.19,1v0a2.76,2.76,0,0,0,.19,1.05,2.4,2.4,0,0,0,.53.85,2.5,2.5,0,0,0,.79.57,2.63,2.63,0,0,0,2.15,0,3.87,3.87,0,0,0,1-.69l.48.48a4.4,4.4,0,0,1-.52.46,3.58,3.58,0,0,1-.59.36,3,3,0,0,1-.68.23A3.35,3.35,0,0,1,248.68,48.44Z"/><path class="cls-2" d="M254,41.83h4.7v.66h-4v2.24h3.54v.65h-3.54v2.29h4v.66H254Z"/></g></g></svg>