<svg version="1.2" xmlns="http://www.w3.org/2000/svg" viewBox="0 0 1000 1000" width="500" height="500"><style>.a{fill:#92e3a9}.b{opacity:.7;fill:#fff}.c{fill:none;stroke:#263238;stroke-linecap:round;stroke-linejoin:round;stroke-width:1.5}.d{fill:#92e3a9;stroke:#263238;stroke-linecap:round;stroke-linejoin:round;stroke-width:2}.e{fill:none;stroke:#263238;stroke-width:2}.f{fill:#263238;stroke:#263238;stroke-linecap:round;stroke-linejoin:round;stroke-width:2}.g{fill:#263238;stroke:#263238;stroke-width:2}.h{fill:#fff;stroke:#263238;stroke-width:2}.i{fill:none;stroke:#263238;stroke-linecap:round;stroke-linejoin:round;stroke-width:2}.j{fill:#92e3a9;stroke:#263238;stroke-width:2}.k{fill:#263238}.l{fill:#fff;stroke:#263238;stroke-linecap:round;stroke-linejoin:round;stroke-width:1.5}</style><path class="a" d="m874.8 629.9c0 0 102.2-114.9 69.7-314.7-32.5-199.8-199.3-273.4-310.1-235-110.7 38.5-135.6 105.4-226 143.7-90.5 38.3-262.1 12-348 140.6-85.9 128.6 23.7 341.6 163.3 475.2 139.6 133.6 495.9 50 651.1-209.8z"/><path class="b" d="m874.8 629.9c0 0 102.2-114.9 69.7-314.7-32.5-199.8-199.3-273.4-310.1-235-110.7 38.5-135.6 105.4-226 143.7-90.5 38.3-262.1 12-348 140.6-85.9 128.6 23.7 341.6 163.3 475.2 139.6 133.6 495.9 50 651.1-209.8z"/><path class="c" d="m66.2 915h854.5"/><path class="d" d="m95.2 598.2c0 0-5.3 14.5-16.5 16.4-11.1 2-30.9-19.7-18.4-30.9 12.5-11.2 29.6 6.6 34.9 14.5z"/><path class="d" d="m112.3 527.1c0 0-16.4 40.1-9.9 59.9 6.6 19.7 47.4 34.2 59.3 8.5 11.8-25.6-14.5-61.8-24.4-69.7-9.8-7.9-21.7-5.3-25 1.3z"/><path class="d" d="m208.4 544.2c0 0-28.3 25.7-31.6 51.3-3.3 25.7 15.8 34.9 35.6 31.6 19.7-3.3 29.6-53.3 23.7-76.3-5.9-23.1-27.7-6.6-27.7-6.6z"/><path class="d" d="m213.7 686.4c0 0-31.6 1.3-32.9 16.4-1.3 15.2 13.8 18.5 29 5.3 15.1-13.2 17.1-21.1 3.9-21.7z"/><path class="e" d="m181.3 706.5c0 0 24.9-11.4 36.1-13.4"/><path class="d" d="m220.7 785.5c0 0-23.2-21.5-34.8-11.8-11.7 9.8-3.4 22.8 16.7 24.3 20 1.4 27-2.7 18.1-12.5z"/><path class="e" d="m183.7 776.6c0 0 25.6 9.7 34.9 16.2"/><path class="d" d="m98.3 779.1c0 0 32-29.6 48.1-16.1 16.1 13.4 4.6 31.4-23 33.4-27.6 2-37.2-3.7-25.1-17.3z"/><path class="e" d="m149.4 767c0 0-35.3 13.2-48.2 22.3"/><path class="d" d="m135.4 718c0 0-3.3 15.8-15.2 21.7-11.8 5.9-32.9-6.6-21.7-25.7 11.2-19.1 30.9-3.9 36.9 4z"/><path class="d" d="m107.7 668.6c0 0-5.9-13.2-29-4.6-23 8.6-32.2 21.7-17.7 26.3 14.5 4.6 46.7-21.7 46.7-21.7z"/><path class="e" d="m103.3 668c0 0-24.4 2.7-37.6 13.9"/><path class="d" d="m173.5 510.6c0 0 4 9.2 11.9 7.3 7.9-2 9.9-13.9 22.4-10.6 12.5 3.3 23 17.8 23 11.2 0-6.6-15.8-23.7-33.6-23.7-17.7 0-23 7.3-23.7 15.8z"/><path class="e" d="m107.7 668.6c0 0 28.4-5.4 40.2 26.1q1.7 4.6 2.9 9.6"/><path class="d" d="m226 638.1c0 0 5.9-13.1 29-4.6 23 8.6 32.2 21.7 17.8 26.3-14.5 4.7-46.8-21.7-46.8-21.7z"/><path class="e" d="m231.3 639c0 0 23.7-1.3 34.9 12.5"/><path class="e" d="m226 638.1c0 0-9.4-1.8-19.6 2.7"/><path class="e" d="m122.8 614.5c-13.9-14.2-27.6-16.3-27.6-16.3 0 0-20.3-5.4-28.2 1.9"/><path class="e" d="m125.6 541.6l-1.2-5.5"/><path class="e" d="m157.7 832.6c0 0 3-113.4 0-147.8-3-34.4-16.7-74.7-16.7-74.7l-14.1-62.7"/><path class="e" d="m216.2 565.9l2.5-5.4"/><path class="e" d="m164.6 832.5c0 0 1-103.4 4.9-132.9 3.9-29.5 19.7-75.8 19.7-75.8l24.1-51.7"/><path class="e" d="m181.3 706.5c0 0-6.9 59.2-10.8 126.1"/><path class="e" d="m147.9 832.5c0 0 1.9-94.6-2-107.4-3.9-12.7-10.5-7.1-10.5-7.1 0 0-18.2 2.1-24.8 12.7"/><path class="e" d="m152.4 711.7c5.1 28.8 0.4 120.9 0.4 120.9"/><path class="e" d="m200.8 643.9c-5.7 3.9-11.2 10.2-14.9 20.3-11.8 31.4-10.5 168.4-10.5 168.4"/><path class="e" d="m126.2 618.3c6.2 7.2 12.2 16.9 16.7 30.1 15.8 45.3 21.7 162.5 18.7 184.1"/><path class="e" d="m166.2 660.6c-0.9 57.1-1.6 171.9-1.6 171.9"/><path class="e" d="m166.3 653.5c0.7-37.8 1.5-74.7 2.2-94.6 2-51.2 5-48.3 5-48.3 0 0 3.7-11.5 24.1-10.2"/><path class="d" d="m141.2 696.6c0 0-16.5-14.7-9.9-21.9 6.6-7.2 47.4-12.5 59.2-3.1 11.9 9.4-14.5 22.6-24.3 25.5-9.9 2.9-21.8 1.9-25-0.5z"/><path class="e" d="m156.3 684.6c-0.2 1.5-0.3 3-0.3 4.4"/><path class="e" d="m162 667.5c0 0-2.4 4.9-4.2 10.9"/><path class="d" d="m141.2 792.6c0 0-16.5-14.7-9.9-21.9 6.6-7.2 47.4-12.5 59.2-3.1 11.9 9.3-14.5 22.6-24.3 25.5-9.9 2.9-21.8 1.9-25-0.5z"/><path class="e" d="m162 763.4c0 0-6 12.1-6 21.6"/><path class="d" d="m153.4 752c0 0-11.2-10-6.7-14.9 4.5-4.9 32.2-8.5 40.2-2.1 8.1 6.4-9.8 15.4-16.5 17.3-6.7 2-14.8 1.3-17-0.3z"/><path class="e" d="m167.6 732.2c0 0-4.1 8.2-4.1 14.6"/><path class="f" d="m182.5 816.2h-44.6v98.8h44.6z"/><path class="c" d="m319.6 459h-200.7v-249.6h200.7z"/><path class="c" d="m309.3 446.2h-180v-223.9h180z"/><path class="c" d="m259.5 384.3h-80.5v-100.1h80.5z"/><path class="c" d="m867.7 474.8h-101.8v-126.6h101.8z"/><path class="c" d="m862.5 468.3h-91.4v-113.6h91.4z"/><path class="c" d="m837.2 436.9h-40.8v-50.8h40.8z"/><path class="c" d="m951.9 399.6h-68.8v-85.6h68.8z"/><path class="c" d="m948.4 395.2h-61.8v-76.8h61.8z"/><path class="c" d="m931.3 374h-27.6v-34.4h27.6z"/><path class="g" d="m625.3 595.2l-11.3 35.5c0 0-39.2 114.8-39.7 119.3-0.6 4.6 31 130 31 130l-5.7 12 2.9 10.3c0 0-11.4 9.1-15.4 11.4-4 2.3-14.3 5.7-9.8 9.7 4.6 4 16 6.3 22.3 4.6 6.3-1.7 12-4.6 17.2-8 5.1-3.5 16.5-10.3 18.2-10.9 1.8-0.5 7.5 0.6 6.3-6.3-1.1-6.8-4.5-15.4-4.5-15.4 0 0 2.8-7.4 0.5-10.8-2.3-3.5-4.5-5.2-5.1-8-0.6-2.9-3.6-114.1-3.6-114.1l29.7-69.1 7 6.9c0 0 4 84.9 5.7 87.7 1.7 2.9 50.8 119.2 50.8 119.2l5.8 1.9 2.8 5.7c0 0 3.5 24.6 7.5 31.5 4 6.8 9.1 13.1 14.8 2.8 5.7-10.3 6.9-20.6 1.2-30.3-5.7-9.7-7.5-16-7.5-16 0 0 3-6.2 1.3-9.6-1.7-3.4-3.8-14.9-3.8-14.9 0 0-22-98.3-22.6-101.1-0.6-2.9 10.6-121.5 9.4-131.2-1.1-9.7-6.8-44.6-6.8-44.6l-98.3-10.8z"/><path class="h" d="m803.7 275.8l-18.6-5.7c-0.8-0.3-1.6 0.2-1.8 1.1l-0.5 3-6.7 0.4-1.7 11.7 8.8 16.3 0.6 0.2-25.9 93.1-41.7 42.7c0 0-16.5 13-20.1 12.5-3.5-0.5-9.5-0.5-9.5-0.5l-49.2-18.6-25.1-33.6-14.6-39.2-7.2-81.6 9.3-16.4-1.7-11.7-6.7-0.4-0.3-1.7c-0.3-1.6-1.8-2.5-3.3-2.1l-16.8 5.2c-1.3 0.4-2 1.6-1.8 2.8 0.4 2.7 1 7 1.3 7.9 0.3 0.8 3.5 9.6 5.5 15.2l-5.9 88.8 17.6 55.3 23.1 60.2 14.5 114.5c0 0 12.1 9.6 33.2 13.1 21.1 3.5 61.7-1.5 63.8-3.5 2-2 2.5-7.6 2.5-7.6l10.5-112.9c0 0 46.7-71.9 47.7-77.4 1-5.5 13.6-100.9 13.6-100.9 0 0 6.7-18.4 7.1-19.7 0.3-0.9 1-5.6 1.4-8.2 0.2-1.1-0.5-2-1.4-2.3z"/><path class="i" d="m782.8 274.2c0 0 10.1 0.2 11.1 0.8 1 0.7 2.2 2.6 0 3.9-2.2 1.2-9.9 1.9-9.9 1.9 0 0 3.8 2.2 5.1 5.1 1.3 2.9 0.6 6.4-0.3 7"/><path class="i" d="m789.1 285.9c0 0 8.9 4.1 10.2 2.9 1.3-1.3 1.9-2.9 1.9-2.9"/><path class="i" d="m591.4 249.1l-10.5 1c0 0-0.7 1.9 1.2 3.9 2 1.9 8 1.9 8 1.9 0 0-7 1.6-7.3 5.1-0.3 3.5 0.9 9.9 0.9 9.9"/><path class="i" d="m572.6 257.5c0 0 0.6 5.7 2.5 5.7 1.9 0 7.7-2.2 7.7-2.2"/><path class="h" d="m780.5 412.1l-23.8-15-40.5 41.5c0 0-16.5 13-20.1 12.5-3.5-0.5-9.5-0.5-9.5-0.5l-49.2-18.6-25.1-33.6-11.7-31.5-27.3 8.3 14.4 45.3 23.1 60.2 14.5 114.5c0 0 12.1 9.6 33.2 13.1 21.1 3.5 61.7-1.5 63.8-3.5 2-2 2.5-7.6 2.5-7.6l10.5-112.9c0 0 35.5-54.6 45.2-72.2z"/><path class="j" d="m646.7 476.3l5.8 13.7-16 78.3 11.4 24 14.3-22.9-4-78.3 9.1-12-13.9-18.5z"/><path class="h" d="m649.9 444.6c0 0-8 9.5-8.5 14-0.5 4.6-2 25.2-2 25.2l16.5-9.2 15.1 17.2c0 0 14.1-15.6 20.1-22.6 6-7 6-13.1 5-18.1-1-5-7-10.7-7-10.7z"/><path class="h" d="m655.6 377.2c0 0-15 15.7-15.2 17.2-0.3 1.5 0 8.4-0.5 9.3-0.5 1-11.6 12.1-11.6 13.3 0 1.3 5.7 7.4 5.7 7.4 0 0 0 24.4 2.2 25.3 2.2 1 14.7-0.5 14.7-0.5l5 25.4 34.6-21.2-1.4-13c0 0 22.4-13 25.6-28.5 3.2-15.5-3.7-29.6-12.3-35.5-8.7-5.9-22.9-9.6-23.7-9.6-0.7 0 1.8-4.6-1.9-5.9-3.7-1.2-11.3 0.3-17.2 5.4-6 5.2-4 10.9-4 10.9z"/><path class="g" d="m702.4 376.4c-8.7-5.9-22.9-9.6-23.7-9.6-0.7 0 1.8-4.6-1.9-5.9-3.7-1.2-11.3 0.3-17.2 5.4-6 5.2-4 10.9-4 10.9 0 0 1.5 1.9 5.4-0.3 4-2.2 6.4-4.2 15.8-0.7 9.3 3.4 16.7 6.4 8.8 9.8-7.8 3.5-14.7 4-14 6.7 0.7 2.7 5.9 10.1 5.9 11 0 1-3.4 10.4-2 11.4 1.5 0.9 5 1.4 5.7 0 0.7-1.5 3.9-5.2 6.2-5.9 2.2-0.8 9.8 3.4 9.3 7.6-0.5 4.2-7.6 10.3-10.3 11-2.7 0.8-5 1-3.7 2.8 1.2 1.7 4.2 9.8 6.4 9.8 0 0 22.4-13 25.6-28.5 3.2-15.5-3.7-29.6-12.3-35.5z"/><path class="k" d="m650.2 405c-0.3 1.8-1.3 3.1-2.2 3-1-0.1-1.5-1.7-1.2-3.5 0.3-1.8 1.2-3.2 2.2-3.1 0.9 0.2 1.5 1.8 1.2 3.6z"/><path class="i" d="m646 395.9c0 0 4.5-3.5 7.9 1.2"/><path class="i" d="m639.6 426.6c0 0 5.7 2 12.6-1.2"/><path class="f" d="m642.8 428.1c0 0-1.2 4.7 1 5.9 2.2 1.2 6.4-7.1 6.4-7.1z"/><path class="f" d="m650.9 449.2l10.6-1.2-8.1 12.6z"/><path class="h" d="m597.7 359.2l-32.1 10.3 4.6 14.8 36-13.7z"/><path class="h" d="m753 390.6l-9.1 13.1 34.8 20 4.3-16.8z"/><path class="i" d="m702.2 451.2c0 0 3.4 18.8 1.7 30.8"/><path class="i" d="m698.2 463.7c0 0-1.2 29.2-4.6 38.9"/><path class="i" d="m636.2 449.7c0 0-9.4 24.3-9.4 34"/><path class="i" d="m637.6 459.7c0 0-6.8 32-4.6 42.9"/><path class="i" d="m610.8 480.7v-35.8"/><path class="g" d="m304 436.6c6.5-4.5 10.7-11.8 10.7-20.1 0-13.7-11.6-24.8-25.8-24.8-14.3 0-25.9 11.1-25.9 24.8 0 5 1.6 9.5 4.1 13.4-12.5 4.7-21.3 15.8-21.3 28.9 0 12.6 8.2 23.5 20 28.4-5.2 3.7-8.7 9.7-8.7 16.4 0 11.2 9.6 20.4 21.4 20.4 11.8 0 21.4-9.2 21.4-20.4 0-6.3-3-11.9-7.6-15.7 12.8-4.5 21.9-15.8 21.9-29.1 0-8.7-3.9-16.5-10.2-22.2z"/><path class="h" d="m298.9 778.2l-2.8 122c0 0-8.1 11.3-11.6 17.6-3.6 6.2-5.1 13.2-3.9 17.1 1.1 3.9 10.5 5.1 15.9 1.6 5.5-3.5 10.2-23.4 11.3-27.7 1.2-4.3 2.8-14.4 2.8-14.4l20.2-111.5z"/><path class="g" d="m298.1 922c-10.5 2-11.9-4.5-12.1-6.9q-0.9 1.4-1.5 2.7c-3.6 6.2-5.1 13.2-3.9 17.1 1.1 3.9 10.5 5.1 15.9 1.6 5.5-3.5 10.2-23.4 11.3-27.7 0 0-3.9 12.2-9.7 13.2z"/><path class="h" d="m389.1 914.1l-14-129 29.7-0.9-1 120.7c0 0 11.9 9.8 15.9 12.4 4 2.6 13.6 10.9 13.6 13.2 0 2.3-7.3 3.5-15.6 2-8.4-1.4-22.2-6.3-25.7-8.6-3.4-2.3-2.6-4.3-2.9-9.8z"/><path class="g" d="m396.9 915c-2.9-2.1-6-4.8-8.4-7l0.6 6.1c0.3 5.5-0.5 7.5 2.9 9.8 3.5 2.3 17.3 7.2 25.7 8.6 8.3 1.5 15.6 0.3 15.6-2 0-2.3-9.6-10.6-13.6-13.2l-9.2 4.9c0 0-7.5-2.9-13.6-7.2z"/><path class="g" d="m329 575.1c0 0-24.7 35.8-29.5 52.3-4.8 16.4-1.5 156.7-1.5 156.7 0 0 42.1 6.8 62 6.3 19.8-0.5 45.9-4.3 45.9-4.3 0 0 3.9-33.4 4.9-54.2 0.9-20.8 13.5-76 7.2-105-6.3-29-23.9-54.5-23.9-54.5z"/><path class="h" d="m467.8 425.2c0 0-1.9 84.2-2.3 89-0.5 4.9-67-4.8-67-4.8 0 0 0 29.9-0.9 37.8-0.9 8-1.7 14.1-1.7 17.2 0 3.1-0.5 5.3-1.8 8-1.3 2.6-6.6 7.4-27.8 11-21.1 3.5-33.4-3.1-35.2-5.3-1.8-2.2-3.1-11.9-3.1-11.9l-15.7-37.9-20.6 39.1-6 34.1-4.8 38.1c0 0 0.5 1.8 2.4 5 1.9 3.3 8.2 10.1 8.5 11.3 0.4 1.2 0.4 4.8 0.4 6.7 0 1.9 0 12-0.4 13.6-0.3 1.5-1.8-1.6-1.8-1.6 0 0-0.7 2.5-1.8 3.7-1 1.2-1.7-1.8-1.7-1.8-1 3.3-1.7 2.6-2.2 3-0.5 0.3-1.4-6.6-1.4-6.6 0 0-0.3 1.9-0.7 3.6-0.3 1.8-1.6 2-1.6 2-1.7-1.4-1-13.7-1-13.7 0 0-5-4.5-6.7-6.3-1.8-1.7-3.9-10.9-3.9-10.9 0 0-2.8-76.5-2.8-78.3 0-1.7 26-76.2 26-78.6 0-2.5 35.1-15.5 35.1-15.5l41.1-8.8c0 0 25.4-2.2 27.8-1 2.4 1.2 47.3 19.3 47.3 19.3l13.2-66.2c0 0 0.9-12.8 1.8-14 0.9-1.2 4.8-8.2 5.2-10 0.3-1.8 0.9-6.3 2.7-5.7 1.8 0.6 3 3.6 2.7 6-0.3 2.4-3 6.7-3 7.9 0 1.2 17-3.6 15.7 3.9-1.2 7.6-2.1 13.4-3.6 14.6-1.5 1.2-10.4 4-10.4 4z"/><path class="e" d="m286.5 676.5c0 0 0.3-7.2 0.3-8.8 0-1.6 0-4.9 0-4.9"/><path class="e" d="m290 674.6l-0.3-13"/><path class="e" d="m282.9 672.9v-8.8"/><path class="h" d="m446.4 469.9l-2.9 14.8c0 0-44.9-18.1-47.3-19.3-2.4-1.2-27.8 1-27.8 1l-41.1 8.8c0 0-35.1 13-35.1 15.5 0 2.4-26 76.9-26 78.6 0 0.6 0.3 9.6 0.8 21.3l19.4 6.8 5.3-30 20.6-39.1 15.7 37.9c0 0 1.3 9.7 3.1 11.9 1.8 2.2 14.1 8.8 35.2 5.3 21.2-3.6 26.5-8.4 27.8-11 1.3-2.7 1.8-4.9 1.8-8 0-3.1 0.8-9.2 1.7-17.2 0.9-7.9 0.9-37.8 0.9-37.8 0 0 66.5 9.7 67 4.8 0.2-2.1 0.6-18.6 1.1-36.8z"/><path class="h" d="m473.1 402.1c0 0-0.3 4.9 0.8 5.3 1.2 0.3 6.3 0.2 7.9-0.8 1.7-0.9 1.7-3.1 1-4.7-0.7-1.5-8-0.6-9.7 0.2z"/><path class="h" d="m482.9 406.9c0 0 1.4 0.8 0.9 2.9-0.5 2-1.9 3-3.2 3.3-1.4 0.4-6.7 0-7.3-1.1-0.7-1.2-1-4.5 0.6-4.6 1.7-0.2 9-0.5 9-0.5z"/><path class="h" d="m482.1 413c0 0 0.8 1.7 0.5 3-0.3 1.4-3.1 2.6-4.9 2.4-1.9-0.2-5.1-0.8-5.1-1.9 0-1 2-3.5 2-3.5z"/><path class="h" d="m480.2 418.4c0 0 1.7-0.5 1.4 1.2-0.4 1.7-2.1 3.7-3.6 3.7-1.5 0-5.4-1.5-5.1-3 0.4-1.6 1.2-2.2 1.2-2.2z"/><path class="e" d="m468.5 407.9c0 0 0.7 3.7-0.3 6.9-1 3.3-5.3 5.1-5.3 5.1"/><path class="h" d="m398.5 509.4l-8.3-21.6"/><path class="h" d="m312.3 528.3l10.4-14.6"/><path class="h" d="m326.3 440.9l4.7 20.8 34.5-6.7-5.9-11.3z"/><path class="j" d="m344.7 470.7l19.2 65.1-10.2 6.3-12.9-70.2z"/><path class="j" d="m330.2 472.7l5.1 88.2 24.3-3.2-14.9-87z"/><path class="j" d="m369.8 450.7l-46.7 9 3.2 17.3 45.8-9.8z"/><path class="g" d="m347.4 365.2c0 0 8.7-7.4 16.5-5.4 7.8 1.9 13.7 13.3 9.8 20.3-3.9 7.1-16.5 4.4-16.5 4.4l-10.9-13.8z"/><path class="h" d="m313.7 371.5c0 0-12.9 7.5-15.7 18.8-2.7 11.4 9.4 34.9 12.2 40 2.7 5.1 11 11.8 21.6 16.5 10.5 4.7 23.1 5.9 29.4 2 6.2-4 7.8-27.5 8.2-36.9 0.4-9.4-11-34.1-13.3-39.2-2.4-5.1-21.6-16.1-42.4-1.2z"/><path class="g" d="m358.4 377.9c-1-2.3-1.9-4.2-2.3-5.2-2.4-5.1-21.6-16.1-42.4-1.2 0 0-12.9 7.5-15.7 18.8-2.5 10.7 7.9 31.9 11.5 38.8l4.2-8.2c0 0 7.5-4.3 5.9-8.2-1.6-3.9-10.6-8.6-4.7-20 5.7-11.1 26.5-24.1 43.5-14.8z"/><path class="h" d="m319.6 424.1c0 0-10.2-12.6-16.1-8.7-5.9 3.9-1.5 13 1.2 15.7 2.7 2.8 9.4 3.1 11.4 1.2"/><path class="i" d="m351.8 399c-0.1 0-1.6 9.4-0.4 10.9 1.1 1.6 10.5 7.1 9 8.7-1.6 1.5-7.9 1.9-7.9 1.9"/><path class="i" d="m336.9 424.1c0 0 6.2 7.8 14.9 4.3"/><path class="k" d="m341.6 409.9c0 2-1.1 3.6-2.4 3.6-1.3 0-2.3-1.6-2.3-3.6 0-1.9 1-3.5 2.3-3.5 1.3 0 2.4 1.6 2.4 3.5z"/><path class="k" d="m361.2 403.7c0 1.9-1.1 3.5-2.4 3.5-1.3 0-2.3-1.6-2.3-3.5 0-2 1-3.6 2.3-3.6 1.3 0 2.4 1.6 2.4 3.6z"/><path class="i" d="m327.8 405.6c0 0 2-6.3 11.8-7.4"/><path class="i" d="m352.5 395.8c0 0 5.1-5.9 10.6-0.4"/><path class="j" d="m762.1 152.5c0-41.8-35.3-75.4-77.8-72.5-35.3 2.5-64.2 30.8-67.2 66.2-1.7 20.1 4.9 38.7 16.6 52.7 10.7 12.9 16.5 29 16.5 45.7v10h78.6v-10c0-16.7 5.8-32.8 16.5-45.6 10.5-12.6 16.8-28.8 16.8-46.5z"/><path class="c" d="m684.3 253.5c0 0-4.7-100.5-10.7-91.6-6 8.9 2.7 33.8 15.3 32.9 12.7-0.9 22.7-36.5 14.7-32.9-8 3.5-13.3 69.3-8 90.7"/><path class="l" d="m728.8 274h-78.6v-19.4h78.6z"/><path class="l" d="m723.7 293.5h-68.4c-2.8 0-5.1-2.3-5.1-5v-14.4h78.6v14.4c0 2.7-2.3 5-5.1 5z"/><path class="g" d="m713.8 307h-48.6c-2.8 0-5.1-2.2-5.1-5v-8.5h58.7v8.5c0 2.8-2.2 5-5 5z"/><path class="c" d="m772.4 152.8h33.3"/><path class="c" d="m570.2 152.8h33.7"/><path class="c" d="m687.9 68.4v-33.3"/><path class="c" d="m748.2 92.5l23-22.9"/><path class="c" d="m604.7 236.1l23.3-23.3"/><path class="c" d="m627 91.9l-22.3-22.3"/><path class="c" d="m771.2 236.1l-22.2-22.2"/></svg>