<svg version="1.2" xmlns="http://www.w3.org/2000/svg" viewBox="0 0 1000 1000" width="500" height="500"><style>.a{fill:#fff}.b{opacity:.2;fill:#20536f}.c{fill:none;stroke:#263238;stroke-linecap:round;stroke-linejoin:round;stroke-width:1.5}.d{fill:#ff835b;stroke:#263238;stroke-linecap:round;stroke-linejoin:round;stroke-width:2}.e{fill:#f76b3e;stroke:#263238;stroke-linecap:round;stroke-linejoin:round;stroke-width:2}.f{fill:#f15d2d;stroke:#263238;stroke-linecap:round;stroke-linejoin:round;stroke-width:2}.g{fill:none;stroke:#263238;stroke-width:2}.h{display:none;fill:#20536f;stroke:#263238;stroke-linecap:round;stroke-linejoin:round;stroke-width:2}.i{fill:#263238;stroke:#263238;stroke-width:2}.j{fill:#fff;stroke:#263238;stroke-width:2}.k{fill:none;stroke:#263238;stroke-linecap:round;stroke-linejoin:round;stroke-width:2}.l{fill:#ff835b;stroke:#263238;stroke-width:2}.m{fill:#263238}.n{fill:#263238;stroke:#263238;stroke-linecap:round;stroke-linejoin:round;stroke-width:2}.o{fill:#f15d2d;stroke:#263238;stroke-width:2}.p{fill:#fff;stroke:#263238;stroke-linecap:round;stroke-linejoin:round;stroke-width:1.5}.q{fill:#20536f;stroke:#263238;stroke-width:2}</style><path class="a" d="m904.3 644c0 0 108.2-121.6 73.8-333.1-34.4-211.6-211-289.5-328.2-248.8-117.3 40.7-143.6 111.6-239.4 152.1-95.7 40.6-277.5 12.7-368.4 148.8-91 136.2 25.1 361.8 172.9 503.2 147.8 141.4 525 52.9 689.3-222.2z"/><path class="b" d="m904.3 644c0 0 108.2-121.6 73.8-333.1-34.4-211.6-211-289.5-328.2-248.8-117.3 40.7-143.6 111.6-239.4 152.1-95.7 40.6-277.5 12.7-368.4 148.8-91 136.2 25.1 361.8 172.9 503.2 147.8 141.4 525 52.9 689.3-222.2z"/><path class="c" d="m48.3 945.8h904.6"/><g style="display:none"><g style="display:none"><path class="d" d="m79 610.5c0 0-5.6 15.3-17.5 17.4-11.8 2.1-32.7-20.9-19.5-32.8 13.3-11.8 31.4 7 37 15.4z"/><path class="e" d="m97.1 535.2c0 0-17.4 42.5-10.5 63.4 7 20.9 50.2 36.3 62.8 9.1 12.5-27.2-15.4-65.5-25.8-73.9-10.5-8.4-23-5.6-26.5 1.4z"/><path class="f" d="m198.8 553.3c0 0-29.9 27.2-33.4 54.4-3.5 27.2 16.7 36.9 37.6 33.4 20.9-3.5 31.4-56.4 25.1-80.8-6.3-24.4-29.3-7-29.3-7z"/><path class="f" d="m204.4 703.9c0 0-33.4 1.4-34.8 17.4-1.4 16 14.6 19.5 30.6 5.6 16.1-14 18.2-22.3 4.2-23z"/><path class="g" d="m170.1 725.1c0 0 26.4-12.1 38.3-14.2"/><path class="e" d="m211.9 808.8c0 0-24.6-22.8-36.9-12.5-12.4 10.3-3.6 24.2 17.6 25.7 21.2 1.5 28.6-2.9 19.3-13.2z"/><path class="g" d="m172.6 799.4c0 0 27.2 10.2 37 17.1"/><path class="f" d="m82.2 802.1c0 0 33.9-31.4 51-17.2 17 14.2 4.8 33.3-24.4 35.4-29.2 2.1-39.4-3.9-26.6-18.2z"/><path class="g" d="m136.3 789.2c0 0-37.4 14-51 23.6"/><path class="e" d="m121.5 737.3c0 0-3.5 16.7-16.1 23-12.5 6.3-34.8-7-23-27.2 11.9-20.2 32.8-4.2 39.1 4.2z"/><path class="f" d="m92.2 685c0 0-6.3-13.9-30.7-4.8-24.4 9-34.1 23-18.8 27.8 15.4 4.9 49.5-23 49.5-23z"/><path class="g" d="m87.5 684.4c0 0-25.8 2.8-39.8 14.7"/><path class="e" d="m161.9 517.8c0 0 4.2 9.7 12.5 7.6 8.4-2.1 10.5-14.6 23.7-11.1 13.3 3.5 24.4 18.8 24.4 11.8 0-6.9-16.7-25.1-35.5-25.1-18.8 0-24.4 7.7-25.1 16.8z"/><path class="g" d="m92.2 685c0 0 30-5.7 42.5 27.6 1.2 3.3 2.3 6.7 3.1 10.2"/><path class="f" d="m217.5 652.8c0 0 6.2-14 30.6-4.9 24.4 9 34.2 23 18.8 27.9-15.3 4.8-49.4-23-49.4-23z"/><path class="g" d="m223 653.7c0 0 25.2-1.4 37 13.2"/><path class="g" d="m217.5 652.8c0 0-10-2-20.8 2.8"/><path class="g" d="m108.2 627.8c-14.7-15.1-29.2-17.3-29.2-17.3 0 0-21.5-5.7-29.9 2"/><path class="g" d="m111.2 550.5l-1.3-5.8"/><path class="g" d="m145.1 858.7c0 0 3.2-120.1 0-156.5-3.1-36.5-17.7-79.2-17.7-79.2l-14.8-66.3"/><path class="g" d="m207.1 576.3l2.7-5.7"/><path class="g" d="m152.4 858.5c0 0 1.1-109.4 5.2-140.7 4.2-31.2 20.9-80.2 20.9-80.2l25.5-54.8"/><path class="g" d="m170.1 725.1c0 0-7.3 62.8-11.4 133.6"/><path class="g" d="m134.7 858.5c0 0 2.1-100.1-2.1-113.6-4.1-13.5-11.1-7.6-11.1-7.6 0 0-19.3 2.3-26.3 13.5"/><path class="g" d="m139.5 730.6c5.4 30.5 0.4 128 0.4 128"/><path class="g" d="m190.8 658.9c-6.1 4.1-11.9 10.7-15.9 21.4-12.5 33.3-11 178.4-11 178.4"/><path class="g" d="m111.8 631.7c6.5 7.7 12.9 18 17.7 32 16.7 47.9 22.9 171.9 19.8 194.8"/><path class="g" d="m154.2 676.6c-1.1 60.4-1.8 181.9-1.8 181.9"/><path class="g" d="m154.3 669c0.7-39.9 1.5-79.1 2.3-100.1 2.1-54.2 5.3-51.1 5.3-51.1 0 0 3.9-12.2 25.5-10.8"/><path class="f" d="m127.6 714.7c0 0-17.4-15.5-10.4-23.2 6.9-7.6 50.1-13.2 62.7-3.3 12.5 9.9-15.4 23.9-25.8 27-10.5 3.1-23 2-26.5-0.5z"/><path class="g" d="m143.7 702c-0.2 1.5-0.4 3.1-0.4 4.6"/><path class="g" d="m149.7 683.8c0 0-2.6 5.2-4.5 11.6"/><path class="e" d="m127.6 816.3c0 0-17.4-15.6-10.4-23.2 6.9-7.6 50.1-13.2 62.7-3.3 12.5 9.9-15.4 23.9-25.8 27-10.5 3.1-23 2-26.5-0.5z"/><path class="g" d="m149.7 785.4c0 0-6.4 12.8-6.4 22.8"/><path class="f" d="m140.6 773.3c0 0-11.9-10.5-7.1-15.7 4.7-5.2 34.1-9 42.6-2.3 8.5 6.8-10.4 16.3-17.5 18.4-7.1 2-15.7 1.4-18-0.4z"/><path class="g" d="m155.6 752.4c0 0-4.4 8.6-4.4 15.4"/></g><path class="h" d="m124.2 841.3h47.2v104.5h-47.2z"/></g><path class="c" d="m104.1 198.9h212.4v264.2h-212.4z"/><path class="c" d="m115 212.5h190.6v237h-190.6z"/><path class="c" d="m167.7 278h85.2v106h-85.2z"/><path class="c" d="m789 345.8h107.8v134.1h-107.8z"/><path class="c" d="m794.6 352.7h96.7v120.3h-96.7z"/><path class="c" d="m821.3 386h43.2v53.7h-43.2z"/><path class="c" d="m913.1 309.6h72.9v90.7h-72.9z"/><path class="c" d="m916.8 314.3h65.4v81.3h-65.4z"/><path class="c" d="m934.9 336.7h29.3v36.4h-29.3z"/><path class="i" d="m640.2 607.4l-12 37.4c0 0-41.5 121.6-42.1 126.4-0.6 4.9 32.9 137.6 32.9 137.6l-6 12.7 3 10.9c0 0-12.1 9.7-16.3 12.1-4.2 2.4-15.1 6.1-10.3 10.3 4.8 4.2 16.9 6.6 23.6 4.8 6.6-1.8 12.7-4.8 18.1-8.4 5.5-3.7 17.6-10.9 19.4-11.5 1.8-0.6 7.9 0.6 6.6-6.7-1.2-7.2-4.8-16.3-4.8-16.3 0 0 3-7.9 0.6-11.5-2.4-3.6-4.8-5.5-5.4-8.5-0.6-3-3.8-120.8-3.8-120.8l31.4-73.1 7.4 7.4c0 0 4.3 89.7 6.1 92.8 1.8 3 53.7 126.2 53.7 126.2l6.2 2 3 6c0 0 3.6 26.1 7.9 33.3 4.2 7.3 9.6 13.9 15.7 3 6-10.9 7.2-21.7 1.2-32-6.1-10.3-7.9-17-7.9-17 0 0 3.2-6.5 1.4-10.2-1.9-3.6-4.1-15.7-4.1-15.7 0 0-23.3-104.1-23.9-107.1-0.6-3 11.2-128.6 10-138.9-1.2-10.3-7.3-47.2-7.3-47.2l-104-11.5z"/><path class="j" d="m829 269.1l-19.6-6c-0.8-0.3-1.7 0.3-1.9 1.2l-0.6 3.2-7.1 0.4-1.7 12.4 9.3 17.3 0.6 0.1-27.4 98.6-44.2 45.2c0 0-17.5 13.8-21.2 13.3-3.7-0.6-10.1-0.6-10.1-0.6l-52.1-19.6-26.6-35.7-15.4-41.4-7.6-86.4 9.8-17.4-1.8-12.4-7.1-0.4-0.3-1.8c-0.3-1.7-2-2.7-3.5-2.2l-17.9 5.5c-1.2 0.4-2 1.7-1.8 3 0.4 2.8 1.1 7.4 1.4 8.3 0.3 0.9 3.7 10.2 5.8 16.1l-6.3 94 18.6 58.5 24.5 63.8 15.4 121.3c0 0 12.8 10.1 35.1 13.8 22.3 3.7 65.4-1.6 67.5-3.7 2.1-2.2 2.7-8 2.7-8l11.1-119.6c0 0 49.5-76.1 50.6-81.9 1-5.9 14.3-106.9 14.3-106.9 0 0 7.1-19.5 7.5-20.8 0.4-0.9 1.1-5.9 1.5-8.7 0.2-1.1-0.5-2.1-1.5-2.5z"/><path class="k" d="m806.9 267.5c0 0 10.8 0.2 11.8 0.9 1 0.6 2.3 2.7 0 4-2.4 1.4-10.5 2-10.5 2 0 0 4 2.4 5.4 5.5 1.4 3 0.7 6.7-0.3 7.4"/><path class="k" d="m813.6 279.9c0 0 9.5 4.4 10.8 3 1.4-1.4 2-3 2-3"/><path class="k" d="m604.3 240.9l-11.2 1.1c0 0-0.6 2 1.4 4 2 2.1 8.4 2.1 8.4 2.1 0 0-7.4 1.7-7.7 5.4-0.4 3.7 1 10.5 1 10.5"/><path class="k" d="m584.3 249.8c0 0 0.7 6 2.7 6 2.1 0 8.2-2.3 8.2-2.3"/><path class="j" d="m804.5 413.4l-25.2-15.8-42.9 43.9c0 0-17.5 13.8-21.2 13.3-3.7-0.6-10.1-0.6-10.1-0.6l-52.1-19.6-26.6-35.7-12.4-33.3-28.9 8.8 15.2 47.9 24.5 63.8 15.4 121.3c0 0 12.8 10.1 35.1 13.8 22.3 3.7 65.4-1.6 67.5-3.7 2.1-2.2 2.7-8 2.7-8l11.1-119.6c0 0 37.6-57.7 47.9-76.5z"/><path class="l" d="m662.9 481.4l6 14.5-16.9 82.9 12.1 25.4 15.1-24.2-4.2-82.8 9.7-12.8-14.8-19.6z"/><path class="j" d="m666.3 447.9c0 0-8.5 10.1-9.1 14.8-0.5 4.8-2.1 26.6-2.1 26.6l17.4-9.7 16.1 18.2c0 0 14.9-16.5 21.3-23.9 6.3-7.4 6.3-13.8 5.3-19.1-1.1-5.4-7.5-11.4-7.5-11.4z"/><path class="j" d="m672.3 376.5c0 0-15.9 16.7-16.2 18.2-0.2 1.6 0 8.9-0.5 9.9-0.5 1.1-12.2 12.8-12.2 14.1 0 1.3 6 7.8 6 7.8 0 0 0 25.8 2.3 26.8 2.3 1.1 15.6-0.5 15.6-0.5l5.2 26.8 36.8-22.4-1.6-13.8c0 0 23.7-13.8 27.1-30.2 3.4-16.4-3.9-31.2-13-37.5-9.2-6.2-24.3-10.1-25-10.1-0.8 0 1.8-5-2.1-6.3-3.9-1.3-12 0.3-18.3 5.7-6.2 5.5-4.1 11.5-4.1 11.5z"/><path class="i" d="m721.8 375.7c-9.2-6.2-24.3-10.1-25-10.1-0.8 0 1.8-5-2.1-6.3-3.9-1.3-12 0.3-18.3 5.7-6.2 5.5-4.1 11.5-4.1 11.5 0 0 1.5 2.1 5.7-0.3 4.2-2.3 6.8-4.4 16.7-0.8 9.9 3.7 17.7 6.8 9.3 10.5-8.3 3.6-15.6 4.1-14.8 7 0.8 2.9 6.3 10.7 6.3 11.7 0 1.1-3.7 11-2.1 12 1.5 1 5.2 1.6 6 0 0.7-1.6 4.1-5.5 6.5-6.3 2.3-0.7 10.4 3.7 9.9 8.1-0.6 4.4-8.1 11-11 11.7-2.8 0.8-5.2 1.1-3.9 2.9 1.3 1.8 4.5 10.4 6.8 10.4 0 0 23.7-13.8 27.1-30.2 3.4-16.4-3.9-31.2-13-37.5z"/><path class="m" d="m666.5 405.9c-0.3 2-1.3 3.4-2.3 3.2-1-0.1-1.6-1.8-1.3-3.7 0.3-1.9 1.4-3.4 2.4-3.2 0.9 0.1 1.5 1.8 1.2 3.7z"/><path class="k" d="m662.1 396.3c0 0 4.7-3.7 8.4 1.3"/><path class="k" d="m655.3 428.8c0 0 6 2.1 13.3-1.3"/><path class="n" d="m658.7 430.4c0 0-1.3 4.9 1.1 6.3 2.3 1.3 6.7-7.6 6.7-7.6z"/><path class="n" d="m667.3 452.8l11.2-1.3-8.6 13.3z"/><path class="j" d="m611 357.5l-34 10.8 4.8 15.7 38.1-14.5z"/><path class="j" d="m775.4 390.7l-9.7 13.9 36.9 21.2 4.6-17.8z"/><path class="k" d="m721.6 454.8c0 0 3.6 20 1.8 32.7"/><path class="k" d="m717.3 468.1c0 0-1.2 30.9-4.8 41.1"/><path class="k" d="m651.7 453.3c0 0-10 25.7-10 36"/><path class="k" d="m653.2 463.9c0 0-7.3 33.9-4.8 45.3"/><path class="k" d="m624.8 486.1v-37.9"/><path class="i" d="m300 439.4c6.9-4.8 11.3-12.5 11.3-21.2 0-14.6-12.2-26.3-27.3-26.3-15.1 0-27.3 11.7-27.3 26.3 0 5.2 1.6 10 4.3 14.1-13.2 4.9-22.6 16.8-22.6 30.6 0 13.4 8.7 24.9 21.2 30.1-5.6 3.9-9.2 10.2-9.2 17.3 0 11.9 10.1 21.6 22.6 21.6 12.6 0 22.7-9.7 22.7-21.6 0-6.6-3.2-12.6-8.1-16.5 13.6-4.8 23.2-16.8 23.2-30.9 0-9.2-4.1-17.5-10.8-23.5z"/><path class="j" d="m294.6 801.1l-2.9 129.1c0 0-8.7 12-12.4 18.6-3.7 6.6-5.3 14-4.1 18.2 1.2 4.1 11.1 5.3 16.9 1.6 5.8-3.7 10.7-24.7 12-29.3 1.2-4.5 2.9-15.2 2.9-15.2l21.4-118.1z"/><path class="i" d="m293.8 953.3c-11.2 2.1-12.7-4.7-12.8-7.3q-1 1.5-1.7 2.8c-3.7 6.6-5.3 14-4.1 18.2 1.2 4.1 11.1 5.3 16.9 1.6 5.8-3.7 10.7-24.7 12-29.3 0 0-4.2 12.9-10.3 14z"/><path class="j" d="m390.2 944.9l-14.9-136.6 31.4-0.9-1 127.8c0 0 12.5 10.3 16.8 13.1 4.3 2.7 14.4 11.6 14.4 14 0 2.5-7.7 3.7-16.5 2.2-8.9-1.6-23.5-6.7-27.2-9.2-3.7-2.4-2.7-4.6-3-10.4z"/><path class="i" d="m398.4 945.8c-3.1-2.1-6.3-5-8.9-7.3l0.7 6.4c0.3 5.8-0.7 8 3 10.4 3.7 2.4 18.3 7.6 27.2 9.2 8.8 1.5 16.5 0.3 16.5-2.2 0-2.4-10.1-11.3-14.4-14l-9.8 5.2c0 0-7.9-3.1-14.3-7.7z"/><path class="i" d="m326.5 586.1c0 0-26.1 37.9-31.2 55.3-5.2 17.4-1.6 165.9-1.6 165.9 0 0 44.6 7.2 65.6 6.7 21-0.5 48.6-4.6 48.6-4.6 0 0 4.1-35.4 5.2-57.4 1-22 14.3-80.4 7.6-111.1-6.6-30.8-25.3-57.8-25.3-57.8z"/><path class="j" d="m473.4 427.3c0 0-2 89.1-2.4 94.3-0.5 5.1-70.9-5.2-70.9-5.2 0 0 0 31.8-1 40.1-0.9 8.4-1.8 15-1.8 18.2 0 3.3-0.5 5.6-1.9 8.4-1.4 2.8-7 8-29.4 11.7-22.4 3.7-35.4-3.3-37.3-5.6-1.9-2.3-3.3-12.6-3.3-12.6l-16.6-40.1-21.8 41.4-6.4 36.1-5.1 40.4c0 0 0.6 1.8 2.6 5.2 2 3.5 8.7 10.8 9 12 0.4 1.3 0.4 5.1 0.4 7.1 0 2 0 12.7-0.4 14.4-0.3 1.6-1.9-1.7-1.9-1.7 0 0-0.8 2.6-1.9 3.8-1.1 1.3-1.8-1.8-1.8-1.8-1.1 3.5-1.8 2.8-2.3 3.1-0.6 0.4-1.5-6.9-1.5-6.9 0 0-0.4 2-0.7 3.8-0.4 1.8-1.7 2.1-1.7 2.1-1.9-1.5-1.2-14.5-1.2-14.5 0 0-5.2-4.8-7-6.7-1.9-1.8-4.1-11.5-4.1-11.5 0 0-3-81-3-82.9 0-1.8 27.5-80.6 27.5-83.2 0-2.6 37.2-16.4 37.2-16.4l43.5-9.3c0 0 26.9-2.4 29.4-1.1 2.6 1.3 50.1 20.4 50.1 20.4l14-70.1c0 0 0.9-13.5 1.9-14.8 0.9-1.2 5.1-8.6 5.4-10.5 0.4-2 1-6.8 2.9-6.1 2 0.6 3.2 3.8 2.9 6.4-0.3 2.5-3.2 7-3.2 8.3 0 1.3 18-3.8 16.7 4.2-1.3 8-2.3 14.1-3.9 15.4-1.6 1.3-11 4.2-11 4.2z"/><path class="g" d="m281.5 693.4c0 0 0.3-7.6 0.3-9.3 0-1.7 0-5.2 0-5.2"/><path class="g" d="m285.2 691.4l-0.4-13.8"/><path class="g" d="m277.7 689.6v-9.3"/><path class="j" d="m450.8 474.7l-3.1 15.6c0 0-47.5-19.1-50.1-20.4-2.5-1.3-29.4 1.1-29.4 1.1l-43.5 9.3c0 0-37.2 13.8-37.2 16.4 0 2.6-27.5 81.4-27.5 83.2 0 0.6 0.4 10.2 0.8 22.6l20.6 7.1 5.6-31.7 21.8-41.4 16.6 40.1c0 0 1.4 10.3 3.3 12.6 1.9 2.3 14.9 9.3 37.3 5.6 22.4-3.7 28-8.9 29.4-11.7 1.4-2.8 1.9-5.1 1.9-8.4 0-3.2 0.9-9.8 1.8-18.2 1-8.3 1-40.1 1-40.1 0 0 70.4 10.3 70.9 5.2 0.2-2.2 0.6-19.7 1.1-39z"/><path class="j" d="m479 402.9c0 0-0.3 5.2 0.9 5.6 1.3 0.3 6.7 0.2 8.4-0.8 1.7-1 1.7-3.4 1-5-0.7-1.6-8.5-0.7-10.3 0.2z"/><path class="j" d="m489.5 407.9c0 0 1.4 0.9 0.9 3.1-0.6 2.1-2 3.2-3.5 3.6-1.4 0.3-7 0-7.7-1.3-0.7-1.2-1.1-4.7 0.7-4.8 1.8-0.2 9.6-0.6 9.6-0.6z"/><path class="j" d="m488.6 414.4c0 0 0.9 1.8 0.5 3.2-0.4 1.5-3.2 2.7-5.2 2.5-2-0.1-5.4-0.9-5.4-1.9 0-1.1 2.2-3.8 2.2-3.8z"/><path class="j" d="m486.6 420.1c0 0 1.8-0.5 1.4 1.3-0.3 1.8-2.1 4-3.7 4-1.7 0-5.8-1.7-5.4-3.3 0.3-1.6 1.2-2.3 1.2-2.3z"/><path class="g" d="m474.2 409c0 0 0.7 4-0.4 7.4-1 3.4-5.5 5.4-5.5 5.4"/><path class="j" d="m400.1 516.4l-8.8-22.8"/><path class="j" d="m308.8 536.5l11-15.5"/><path class="j" d="m323.6 444l5 22 36.5-7.1-6.2-12z"/><path class="l" d="m343.1 475.5l20.3 68.9-10.8 6.7-13.7-74.3z"/><path class="l" d="m327.7 477.6l5.4 93.4 25.8-3.3-15.8-92.2z"/><path class="l" d="m369.7 454.3l-49.4 9.6 3.3 18.3 48.6-10.4z"/><path class="i" d="m346 363.9c0 0 9.1-7.9 17.4-5.9 8.3 2.1 14.6 14.2 10.4 21.6-4.1 7.5-17.4 4.6-17.4 4.6l-11.6-14.5z"/><path class="j" d="m310.3 370.5c0 0-13.7 7.9-16.6 19.9-2.9 12.1 10 37 12.9 42.4 2.9 5.4 11.6 12.4 22.8 17.4 11.2 5 24.5 6.2 31.1 2.1 6.7-4.2 8.3-29.1 8.7-39 0.5-10-11.6-36.2-14.1-41.6-2.5-5.4-22.8-17-44.8-1.2z"/><path class="i" d="m357.6 377.3c-1.1-2.5-2-4.5-2.5-5.6-2.5-5.4-22.8-17-44.8-1.2 0 0-13.7 7.9-16.6 19.9-2.7 11.3 8.3 33.8 12.2 41.1l4.4-8.7c0 0 7.9-4.6 6.2-8.7-1.6-4.2-11.2-9.2-4.9-21.2 6-11.8 28-25.5 46-15.6z"/><path class="j" d="m316.5 426.1c0 0-10.8-13.3-17-9.1-6.2 4.1-1.6 13.7 1.3 16.6 2.9 2.9 9.9 3.3 12 1.2"/><path class="k" d="m350.6 399.6c0 0-1.7 9.9-0.4 11.6 1.2 1.6 11.2 7.4 9.5 9.1-1.7 1.7-8.3 2.1-8.3 2.1"/><path class="k" d="m334.8 426.1c0 0 6.6 8.3 15.8 4.6"/><path class="m" d="m337.3 414.9c-1.4 0-2.5-1.7-2.5-3.7 0-2.1 1.1-3.8 2.5-3.8 1.4 0 2.5 1.7 2.5 3.8 0 2-1.1 3.7-2.5 3.7z"/><path class="m" d="m358 408.3c-1.3 0-2.4-1.7-2.4-3.8 0-2 1.1-3.7 2.4-3.7 1.4 0 2.5 1.7 2.5 3.7 0 2.1-1.1 3.8-2.5 3.8z"/><path class="k" d="m325.2 406.6c0 0 2.1-6.6 12.5-7.9"/><path class="k" d="m351.4 396.2c0 0 5.4-6.2 11.2-0.4"/><path class="o" d="m785 138.6c0-44.3-37.4-79.8-82.3-76.7-37.5 2.6-68 32.6-71.2 70-1.8 21.3 5.1 41 17.6 55.9 11.3 13.6 17.5 30.7 17.5 48.4v10.5h83.1v-10.5c0-17.7 6.2-34.8 17.5-48.4 11.1-13.3 17.8-30.5 17.8-49.2z"/><path class="c" d="m702.6 245.5c0 0-4.9-106.4-11.3-96.9-6.4 9.4 2.8 35.7 16.3 34.8 13.4-1 24-38.6 15.5-34.8-8.5 3.7-14.1 73.4-8.5 96"/><path class="p" d="m666.6 246.7h83.1v20.6h-83.1z"/><path class="p" d="m744.4 287.9h-72.5c-2.9 0-5.3-2.4-5.3-5.3v-15.3h83.1v15.3c0 2.9-2.4 5.3-5.3 5.3z"/><path class="q" d="m733.9 300.1h-51.5c-3 0-5.3-2.4-5.3-5.3v-9h62.1v9c0 2.9-2.4 5.3-5.3 5.3z"/><path class="c" d="m795.9 139h35.3"/><path class="c" d="m581.8 139h35.7"/><path class="c" d="m706.5 49.6v-35.3"/><path class="c" d="m770.3 75.2l24.4-24.4"/><path class="c" d="m618.3 227.2l24.7-24.7"/><path class="c" d="m641.9 74.4l-23.6-23.6"/><path class="c" d="m794.7 227.2l-23.6-23.6"/></svg>